<?xml version="1.0" standalone="no"?>
<!DOCTYPE svg PUBLIC "-//W3C//DTD SVG 20010904//EN"
 "http://www.w3.org/TR/2001/REC-SVG-20010904/DTD/svg10.dtd">
<svg version="1.0" xmlns="http://www.w3.org/2000/svg"
 width="800.000000pt" height="800.000000pt" viewBox="0 0 800.000000 800.000000"
 preserveAspectRatio="xMidYMid meet">
<metadata>
Created by potrace 1.14, written by Peter Selinger 2001-2017
</metadata>
<g transform="translate(0.000000,800.000000) scale(0.100000,-0.100000)"
fill="#000000" stroke="none">
<path d="M0 4000 l0 -4000 2580 0 c1713 0 2580 3 2580 10 0 6 7 10 16 10 8 0
12 -5 9 -10 -4 -7 467 -10 1404 -10 l1411 0 0 4000 0 4000 -1444 0 c-1146 0
-1446 -3 -1450 -12 -5 -10 -7 -10 -12 0 -4 9 -524 12 -2550 12 l-2544 0 0
-4000z m1835 3980 c-3 -5 -10 -10 -16 -10 -5 0 -9 5 -9 10 0 6 7 10 16 10 8 0
12 -4 9 -10z m3455 -20 c0 -5 -4 -10 -10 -10 -5 0 -10 5 -10 10 0 6 5 10 10
10 6 0 10 -4 10 -10z m80 -20 c0 -5 -5 -10 -11 -10 -5 0 -7 5 -4 10 3 6 8 10
11 10 2 0 4 -4 4 -10z m610 0 c0 -5 -2 -10 -4 -10 -3 0 -8 5 -11 10 -3 6 -1
10 4 10 6 0 11 -4 11 -10z m-5240 -20 c0 -5 -4 -10 -10 -10 -5 0 -10 5 -10 10
0 6 5 10 10 10 6 0 10 -4 10 -10z m5330 6 c0 -11 -19 -15 -25 -6 -3 5 1 10 9
10 9 0 16 -2 16 -4z m910 -6 c0 -5 -4 -10 -10 -10 -5 0 -10 5 -10 10 0 6 5 10
10 10 6 0 10 -4 10 -10z m-1940 -40 c0 -5 -4 -10 -10 -10 -5 0 -10 5 -10 10 0
6 5 10 10 10 6 0 10 -4 10 -10z m290 -30 c0 -5 -4 -10 -10 -10 -5 0 -10 5 -10
10 0 6 5 10 10 10 6 0 10 -4 10 -10z m-3400 -50 c0 -5 -4 -10 -10 -10 -5 0
-10 5 -10 10 0 6 5 10 10 10 6 0 10 -4 10 -10z m2680 -20 c0 -5 -2 -10 -4 -10
-3 0 -8 5 -11 10 -3 6 -1 10 4 10 6 0 11 -4 11 -10z m-4490 -41 c0 -6 -4 -7
-10 -4 -5 3 -10 11 -10 16 0 6 5 7 10 4 6 -3 10 -11 10 -16z m6445 -9 c3 -5
-1 -10 -9 -10 -9 0 -16 5 -16 10 0 6 4 10 9 10 6 0 13 -4 16 -10z m-6410 -18
c-3 -3 -11 0 -18 7 -9 10 -8 11 6 5 10 -3 15 -9 12 -12z m6785 -2 c0 -5 -4
-10 -10 -10 -5 0 -10 5 -10 10 0 6 5 10 10 10 6 0 10 -4 10 -10z m-6620 -65
c14 -8 19 -14 10 -14 -8 0 -26 6 -40 14 -14 8 -19 14 -10 14 8 0 26 -6 40 -14z
m1498 -23 c4 -23 -4 -27 -27 -13 -17 11 -7 45 12 39 6 -3 13 -14 15 -26z
m-1413 -12 c3 -6 -1 -7 -9 -4 -18 7 -21 14 -7 14 6 0 13 -4 16 -10z m1515 -10
c0 -5 -4 -10 -10 -10 -5 0 -10 5 -10 10 0 6 5 10 10 10 6 0 10 -4 10 -10z
m3820 -10 c0 -5 -4 -10 -10 -10 -5 0 -10 5 -10 10 0 6 5 10 10 10 6 0 10 -4
10 -10z m-5230 -21 c0 -14 -17 -10 -23 5 -4 10 -1 13 9 9 7 -3 14 -9 14 -14z
m1658 -34 c16 -36 15 -45 -7 -45 -17 0 -31 25 -31 58 0 22 26 13 38 -13z
m5352 5 c0 -11 -7 -20 -15 -20 -15 0 -21 21 -8 33 12 13 23 7 23 -13z m-2650
-25 c0 -8 -7 -15 -15 -15 -16 0 -20 12 -8 23 11 12 23 8 23 -8z m-560 -5 c0
-5 -4 -10 -10 -10 -5 0 -10 5 -10 10 0 6 5 10 10 10 6 0 10 -4 10 -10z m3495
-10 c3 -5 -1 -10 -10 -10 -9 0 -13 5 -10 10 3 6 8 10 10 10 2 0 7 -4 10 -10z
m-3285 -15 c0 -8 -4 -15 -9 -15 -13 0 -22 16 -14 24 11 11 23 6 23 -9z m630
11 c0 -11 -19 -15 -25 -6 -3 5 1 10 9 10 9 0 16 -2 16 -4z m675 -6 c3 -5 -1
-10 -9 -10 -9 0 -16 5 -16 10 0 6 4 10 9 10 6 0 13 -4 16 -10z m-5249 -15
c-10 -8 -23 -12 -28 -9 -14 9 2 24 25 24 21 -1 21 -1 3 -15z m3874 -25 c0 -5
-2 -10 -4 -10 -3 0 -8 5 -11 10 -3 6 -1 10 4 10 6 0 11 -4 11 -10z m-3537 -15
c1 -5 -6 -11 -15 -13 -11 -2 -18 3 -18 13 0 17 30 18 33 0z m47 1 c0 -11 -19
-15 -25 -6 -3 5 1 10 9 10 9 0 16 -2 16 -4z m306 -11 c10 -8 14 -15 8 -15 -5
0 -19 7 -30 15 -10 8 -14 15 -8 15 5 0 19 -7 30 -15z m4796 -7 c-6 -6 -15 -8
-19 -4 -4 4 -1 11 7 16 19 12 27 3 12 -12z m-1972 2 c0 -5 -7 -10 -15 -10 -8
0 -15 5 -15 10 0 6 7 10 15 10 8 0 15 -4 15 -10z m-3495 -11 c12 -19 -5 -23
-22 -6 -16 16 -16 17 -1 17 9 0 20 -5 23 -11z m605 -13 c0 -3 -4 -8 -10 -11
-5 -3 -10 -1 -10 4 0 6 5 11 10 11 6 0 10 -2 10 -4z m6650 -10 c0 -3 -4 -8
-10 -11 -5 -3 -10 -1 -10 4 0 6 5 11 10 11 6 0 10 -2 10 -4z m-7180 -16 c0 -5
-4 -10 -10 -10 -5 0 -10 5 -10 10 0 6 5 10 10 10 6 0 10 -4 10 -10z m200 -50
c0 -5 -5 -10 -11 -10 -5 0 -7 5 -4 10 3 6 8 10 11 10 2 0 4 -4 4 -10z m635
-10 c3 -5 -1 -10 -9 -10 -8 0 -18 5 -21 10 -3 6 1 10 9 10 8 0 18 -4 21 -10z
m93 -39 c2 -6 10 -11 17 -11 19 0 65 -22 65 -31 0 -13 -131 28 -151 48 -7 7 2
9 28 7 20 -1 39 -7 41 -13z m2412 9 c0 -5 -4 -10 -10 -10 -5 0 -10 5 -10 10 0
6 5 10 10 10 6 0 10 -4 10 -10z m1650 2 c0 -13 -12 -22 -22 -16 -10 6 -1 24
13 24 5 0 9 -4 9 -8z m450 -12 c0 -5 -7 -10 -15 -10 -8 0 -15 5 -15 10 0 6 7
10 15 10 8 0 15 -4 15 -10z m900 0 c0 -5 -4 -10 -10 -10 -5 0 -10 5 -10 10 0
6 5 10 10 10 6 0 10 -4 10 -10z m-6450 -4 c0 -3 -4 -8 -10 -11 -5 -3 -10 -1
-10 4 0 6 5 11 10 11 6 0 10 -2 10 -4z m430 -6 c0 -5 -7 -10 -16 -10 -8 0 -12
5 -9 10 3 6 10 10 16 10 5 0 9 -4 9 -10z m274 4 c9 -3 16 -10 16 -14 0 -10
-50 -11 -105 -2 l-40 6 45 7 c25 3 50 7 57 7 6 1 18 -1 27 -4z m5836 -14 c0
-5 -4 -10 -10 -10 -5 0 -10 5 -10 10 0 6 5 10 10 10 6 0 10 -4 10 -10z m-6110
-20 c0 -5 -4 -10 -10 -10 -5 0 -10 5 -10 10 0 6 5 10 10 10 6 0 10 -4 10 -10z
m-186 -31 c-9 -10 -21 -16 -26 -13 -5 3 -2 14 8 25 9 10 21 16 26 13 5 -3 2
-14 -8 -25z m802 16 c17 -16 14 -18 -10 -9 -9 3 -16 10 -16 15 0 13 9 11 26
-6z m217 -34 c20 -11 37 -18 37 -15 0 4 6 2 13 -3 6 -6 37 -18 67 -28 30 -10
78 -29 107 -41 28 -13 55 -24 58 -24 4 0 36 -13 72 -30 35 -16 68 -30 72 -30
4 0 16 -9 27 -21 48 -53 95 -73 176 -74 20 0 36 -4 35 -10 -1 -5 8 -11 21 -13
13 -2 20 -8 16 -14 -4 -7 -2 -8 5 -4 6 4 18 3 25 -3 8 -7 20 -10 27 -9 8 2 13
-5 13 -14 -1 -11 5 -18 17 -18 10 0 30 -11 45 -25 15 -14 31 -25 36 -25 5 0
35 -17 66 -39 31 -21 75 -44 97 -51 22 -7 50 -20 63 -28 12 -8 48 -16 80 -17
57 -2 129 -20 147 -36 17 -16 25 -9 19 16 -5 21 -3 25 18 25 13 0 28 -4 34
-10 5 -5 19 -7 32 -3 l22 5 -25 44 c-23 39 -24 44 -8 44 9 0 26 -11 38 -24 11
-13 30 -27 43 -31 21 -6 22 -5 11 14 -27 42 17 39 64 -5 23 -21 31 -23 42 -14
22 18 18 37 -6 36 -32 -1 -33 17 -3 31 18 8 32 9 45 3 12 -7 20 -7 24 0 3 6
-1 13 -9 16 -13 5 -11 10 10 27 20 15 25 27 22 48 -3 16 0 29 4 29 20 0 36 26
26 43 -5 10 -6 22 -2 29 5 8 10 6 15 -8 7 -17 8 -17 8 -1 1 19 31 24 31 5 0
-9 3 -8 10 2 6 10 27 15 62 16 83 2 88 3 88 18 0 18 35 26 85 19 46 -6 85 9
85 32 0 8 9 15 19 15 11 0 23 5 26 11 4 6 13 8 21 5 8 -3 14 -1 14 5 0 5 13 0
29 -12 16 -12 34 -19 39 -15 6 3 13 2 17 -4 4 -6 13 -5 26 3 18 10 23 8 44
-15 19 -23 33 -28 74 -29 46 -2 51 -4 51 -26 0 -34 23 -83 55 -118 15 -16 24
-23 20 -15 -4 8 8 -1 28 -20 19 -19 48 -38 64 -41 15 -3 27 -10 26 -16 -2 -8
7 -9 28 -3 32 9 55 0 104 -40 11 -9 40 -22 65 -29 25 -7 50 -17 57 -23 7 -6
14 -5 17 1 5 7 15 7 31 1 14 -5 25 -6 25 -2 0 9 20 -20 20 -30 0 -4 -7 -5 -15
-2 -20 8 -15 -20 11 -63 25 -42 78 -59 95 -31 4 7 14 6 29 -2 20 -11 21 -10
15 12 -5 21 -4 20 20 -7 18 -21 24 -24 19 -10 -4 11 -12 23 -18 27 -7 5 -6 11
3 20 11 10 14 10 18 0 3 -6 9 -10 14 -6 5 3 9 0 9 -5 0 -6 3 -10 8 -9 19 7
154 -65 200 -105 14 -13 20 -27 17 -38 -4 -10 3 -28 16 -43 19 -22 23 -39 24
-113 1 -64 -2 -93 -13 -105 -8 -9 -12 -23 -9 -30 3 -8 6 -5 7 7 1 20 2 20 9 0
10 -25 -9 -47 -26 -33 -7 6 -13 19 -13 30 0 10 -9 29 -20 41 -29 30 -53 80
-37 74 8 -3 14 4 15 19 2 24 -22 44 -53 44 -15 0 -15 -2 -1 -22 20 -28 20 -38
1 -38 -12 0 -13 -3 -3 -19 9 -15 9 -28 -1 -59 -12 -36 -12 -43 5 -66 11 -14
22 -26 27 -26 17 0 5 -20 -13 -20 -23 0 -26 -15 -6 -27 8 -4 18 -28 23 -53 7
-35 13 -45 32 -50 28 -6 41 -30 17 -30 -17 0 -20 -9 -8 -26 9 -14 62 -32 84
-29 11 2 15 -2 11 -11 -3 -8 -8 -12 -12 -9 -4 2 -8 -2 -8 -10 0 -11 4 -12 13
-4 13 11 44 -13 44 -34 0 -8 -3 -8 -8 -2 -4 6 -16 12 -27 13 -11 2 -24 7 -30
12 -18 14 -139 50 -190 56 l-50 7 23 -22 c23 -23 22 -41 -4 -41 -8 0 -14 -4
-14 -10 0 -5 6 -10 14 -10 7 0 16 -9 19 -21 3 -12 10 -18 16 -14 7 4 11 -4 11
-19 0 -14 5 -26 11 -26 19 0 70 -60 63 -72 -4 -7 -3 -8 5 -4 6 4 11 13 10 19
-3 27 2 37 21 37 21 0 27 -19 11 -36 -5 -5 -12 -23 -14 -41 -4 -25 1 -37 24
-60 16 -15 29 -34 29 -42 0 -8 3 -11 7 -8 3 4 11 -3 17 -16 7 -12 17 -23 24
-23 32 -4 35 -7 12 -13 -25 -7 -24 -8 13 -25 20 -10 40 -23 44 -29 4 -6 1 -7
-6 -2 -10 6 -11 3 -2 -13 6 -11 20 -24 31 -27 11 -3 20 -13 20 -21 0 -8 5 -14
10 -14 6 0 10 -5 10 -11 0 -7 -11 -9 -30 -5 -42 8 -40 -18 3 -35 l32 -13 -37
-4 c-25 -2 -38 -8 -38 -18 0 -8 -4 -14 -10 -14 -5 0 -10 -10 -10 -21 0 -18 2
-19 15 -9 13 10 15 9 16 -11 1 -17 3 -19 6 -6 2 9 11 17 20 17 10 0 14 -6 10
-20 -3 -11 -1 -18 3 -15 5 3 12 1 15 -5 4 -6 1 -9 -7 -8 -7 2 -14 -7 -16 -20
-2 -16 -8 -22 -18 -18 -24 9 -15 -15 17 -45 21 -20 30 -38 31 -61 0 -18 7 -44
15 -57 13 -20 13 -25 2 -32 -11 -7 -10 -9 3 -9 9 0 20 -10 24 -22 4 -13 11
-26 15 -29 5 -3 12 -34 15 -70 5 -53 12 -70 36 -96 17 -17 27 -36 24 -42 -6
-10 6 -15 26 -12 4 0 5 -5 3 -12 -3 -6 4 -18 16 -25 12 -8 18 -9 14 -3 -3 6
-1 11 5 11 6 0 10 -8 8 -17 -5 -19 35 -107 52 -118 5 -3 10 -15 10 -26 0 -10
4 -19 9 -19 5 0 9 -16 8 -35 -1 -35 28 -75 53 -75 6 0 11 -12 10 -27 -1 -16
-1 -30 0 -33 1 -3 3 -14 5 -25 2 -11 8 -39 13 -63 9 -39 1 -65 -13 -43 -3 6
-12 8 -20 5 -19 -8 -10 -51 16 -80 11 -11 19 -30 19 -41 0 -12 7 -24 16 -27 9
-3 14 -13 11 -20 -3 -8 5 -26 19 -41 13 -14 24 -31 24 -36 0 -5 11 -21 24 -33
24 -25 43 -62 26 -51 -6 3 -10 -2 -10 -12 0 -14 -2 -15 -9 -5 -4 8 -11 13 -15
13 -23 -3 -30 0 -17 8 11 7 5 11 -23 16 -20 4 -35 10 -32 13 3 2 -6 14 -20 24
-31 25 -38 20 -24 -18 6 -15 9 -38 6 -50 -4 -14 -1 -24 9 -28 8 -3 15 -14 15
-24 0 -10 13 -32 30 -48 37 -37 38 -52 2 -65 -21 -7 -35 -24 -51 -62 -12 -29
-27 -60 -32 -69 -15 -29 -10 -67 11 -85 11 -10 20 -25 20 -35 0 -17 30 -53
107 -130 21 -20 34 -40 30 -44 -4 -4 -2 -13 5 -21 6 -7 8 -16 5 -20 -4 -3 1
-12 11 -20 9 -8 12 -12 6 -9 -7 3 -19 -6 -29 -20 -15 -24 -15 -27 0 -44 9 -10
15 -23 12 -27 -3 -5 5 -42 19 -83 13 -41 24 -81 24 -89 0 -8 8 -23 18 -34 9
-10 18 -29 19 -41 3 -40 10 -73 18 -85 4 -8 -1 -18 -14 -27 -17 -12 -19 -19
-11 -40 12 -31 13 -94 2 -94 -13 0 -45 -77 -38 -88 3 -6 2 -14 -4 -17 -8 -5
-8 -11 0 -20 15 -18 4 -35 -22 -35 -17 0 -19 -4 -14 -28 4 -15 14 -32 23 -39
9 -7 13 -21 10 -35 -3 -13 -1 -32 3 -43 5 -11 9 -16 9 -12 1 5 8 1 17 -7 13
-13 14 -22 5 -48 -6 -17 -11 -31 -11 -32 0 -1 14 -2 30 -3 21 -2 30 2 30 12 0
19 26 19 33 1 3 -8 -5 -36 -19 -63 -13 -26 -29 -66 -34 -88 -6 -27 -21 -49
-46 -69 l-36 -28 -19 21 c-32 35 -48 27 -51 -26 -5 -81 -28 -69 -94 52 -32 59
-66 111 -76 116 -11 6 -15 15 -11 26 4 11 3 14 -5 9 -7 -4 -12 -2 -12 4 0 7
-7 10 -15 6 -8 -3 -22 -3 -30 0 -13 5 -13 9 -3 22 11 13 10 14 -9 4 -30 -17
-37 -15 -18 4 9 9 13 19 9 23 -4 3 -9 0 -11 -7 -7 -17 -23 -5 -23 18 0 11 -9
24 -20 30 -12 6 -20 21 -20 36 0 17 4 23 12 18 8 -5 9 -2 5 9 -3 9 0 22 7 30
11 10 10 18 -4 45 -9 17 -20 28 -24 25 -4 -4 -4 0 -1 8 3 9 -1 22 -9 29 -9 7
-14 15 -12 19 7 13 -111 196 -135 208 -16 8 -24 21 -24 39 -1 18 -12 37 -35
57 -19 16 -29 27 -22 23 6 -4 12 -2 12 3 0 6 -5 11 -11 11 -5 0 -7 5 -4 10 3
6 1 10 -6 10 -7 0 -10 3 -6 6 3 4 -6 23 -21 43 -33 44 -68 82 -57 61 5 -9 4
-12 -1 -7 -5 5 -10 13 -10 18 -1 5 -3 11 -4 14 -1 3 -3 8 -4 13 -4 19 -18 30
-36 27 -11 -2 -20 1 -20 7 0 7 -6 4 -12 -5 -17 -21 -99 -18 -125 5 -10 8 -24
13 -30 11 -17 -6 -29 25 -15 39 13 13 4 38 -15 38 -11 0 -12 -8 -7 -36 10 -54
-14 -40 -40 24 -19 46 -24 52 -51 52 -44 0 -101 23 -123 48 -12 13 -31 22 -48
22 -22 0 -25 -3 -14 -10 8 -5 11 -13 6 -17 -4 -4 -15 1 -25 13 -13 17 -21 19
-39 11 -12 -6 -22 -18 -22 -28 0 -10 -7 -22 -16 -27 -9 -5 -17 -19 -18 -31 0
-12 -4 -20 -7 -19 -15 7 -40 -27 -35 -48 4 -13 2 -26 -4 -29 -5 -3 -10 -19
-10 -36 0 -29 -13 -38 -26 -17 -5 8 -10 7 -18 -4 -6 -8 -19 -17 -28 -21 -10
-3 -18 -13 -18 -22 0 -8 -4 -15 -10 -15 -5 0 -7 7 -4 15 8 19 -5 19 -29 1 -16
-12 -22 -12 -45 0 -16 8 -28 10 -30 4 -2 -6 -7 -8 -10 -6 -4 2 -13 -2 -20 -10
-10 -11 -10 -14 0 -14 8 0 6 -5 -5 -11 -9 -5 -21 -8 -26 -5 -5 4 -17 3 -26 0
-12 -5 -13 -9 -4 -14 17 -11 3 -40 -19 -40 -10 0 -27 7 -38 15 -25 19 -38 19
-30 0 5 -15 -2 -17 -59 -19 -25 -1 -59 -26 -68 -48 -3 -10 -16 -18 -27 -18
-13 0 -20 -7 -20 -18 0 -24 -26 -53 -67 -77 -18 -11 -33 -24 -33 -30 0 -6 -18
-21 -40 -35 -22 -14 -40 -28 -40 -31 0 -4 -11 -6 -24 -5 -29 4 -58 -13 -38
-21 17 -7 15 -23 -3 -23 -15 0 -32 -12 -84 -58 -14 -13 -20 -20 -12 -16 9 4
12 2 9 -7 -3 -8 -11 -13 -18 -11 -6 1 -10 -3 -8 -10 3 -7 -6 -21 -19 -31 -42
-34 -61 -84 -51 -134 16 -71 16 -71 -134 -68 -73 2 -143 5 -155 8 -21 5 -73
-24 -82 -48 -2 -5 -17 -22 -32 -37 -15 -16 -24 -28 -21 -29 4 0 -1 -4 -11 -8
-10 -4 -18 -10 -17 -15 1 -4 -8 -16 -20 -26 -13 -11 -16 -20 -9 -22 6 -2 13
-23 15 -46 3 -37 1 -44 -18 -51 -13 -5 -36 -22 -53 -39 -16 -16 -34 -28 -40
-25 -13 4 -35 -38 -35 -67 0 -11 -4 -20 -10 -20 -5 0 -10 -10 -10 -23 0 -13
-4 -27 -9 -32 -4 -6 -16 -30 -25 -55 -12 -33 -27 -51 -52 -65 -20 -11 -45 -37
-57 -58 -18 -32 -20 -42 -10 -68 11 -29 11 -31 -8 -26 -20 5 -20 5 -3 -14 9
-10 14 -19 9 -19 -4 0 -2 -7 5 -15 10 -11 9 -18 -3 -30 -9 -8 -19 -24 -22 -35
-5 -14 -15 -20 -38 -20 -34 -1 -67 -20 -67 -39 0 -6 -17 -11 -39 -11 -31 0
-44 -6 -60 -26 -12 -15 -21 -32 -21 -39 0 -6 -18 -18 -40 -25 -63 -21 -67 -32
-32 -120 3 -8 7 -25 8 -37 2 -18 -2 -23 -21 -23 -13 0 -27 -4 -30 -10 -3 -5
-2 -10 3 -10 15 0 22 -41 11 -62 -5 -10 -19 -18 -30 -18 -15 0 -19 -5 -14 -19
7 -24 -25 -38 -40 -18 -5 8 -14 14 -18 15 -29 2 -86 35 -107 63 -14 18 -33 40
-42 48 -10 9 -18 22 -18 29 0 8 -6 12 -14 9 -10 -4 -13 -1 -9 9 4 10 -2 17
-15 21 -15 3 -22 16 -27 44 -4 21 -4 43 0 49 4 6 -2 31 -11 57 -13 35 -15 48
-6 51 17 5 15 23 -5 37 -28 21 -24 74 10 150 17 39 35 71 39 73 13 6 9 36 -8
60 -8 12 -14 28 -11 35 2 6 -7 23 -20 37 -13 14 -23 30 -23 37 0 7 -4 13 -10
13 -5 0 -10 12 -10 28 0 27 -9 47 -42 93 -14 20 -15 33 -6 84 6 33 15 66 21
73 6 8 12 22 14 32 1 10 14 40 28 66 28 52 31 74 14 91 -9 9 -8 18 5 37 14 23
14 26 1 26 -24 0 -17 30 10 40 14 5 26 18 26 30 1 11 2 23 3 28 1 9 54 132 67
154 5 10 9 36 9 58 0 26 4 40 13 40 7 0 21 6 31 13 14 10 15 17 7 40 -6 16
-15 25 -21 22 -5 -3 -10 3 -10 14 0 16 5 18 33 14 17 -3 33 -8 35 -13 2 -4 21
2 42 14 27 14 40 28 40 42 0 12 6 24 14 27 17 7 29 47 12 44 -7 -1 -10 10 -8
31 1 23 -2 32 -14 32 -11 0 -14 6 -8 22 6 20 5 21 -10 9 -14 -12 -16 -11 -17
3 -2 19 -5 35 -9 39 -7 7 -6 46 1 41 5 -3 9 18 9 46 0 55 -24 100 -49 92 -16
-5 -8 12 22 46 11 12 17 22 13 22 -5 0 2 9 15 20 13 10 18 19 12 20 -7 0 -13
7 -13 16 0 12 6 15 21 11 18 -5 18 -3 7 11 -9 12 -7 12 10 -2 18 -15 19 -21 8
-30 -7 -6 -16 -18 -19 -27 -4 -14 2 -13 36 6 26 14 41 28 39 38 -1 8 2 18 8
22 5 3 10 18 9 33 0 26 -1 26 -9 5 -5 -13 -15 -23 -22 -22 -10 0 -10 2 0 6 6
2 12 14 12 26 0 37 12 67 23 60 7 -4 8 0 3 12 -5 15 -4 16 8 6 11 -9 14 -8 12
6 0 10 5 17 12 15 8 -1 11 2 8 7 -8 12 -30 8 -52 -9 -17 -14 -18 -14 -6 2 8 9
11 21 8 26 -3 6 1 15 8 21 10 8 16 9 21 1 8 -12 25 -4 25 13 0 7 -4 6 -10 -3
-8 -12 -10 -10 -10 10 0 20 -2 22 -10 10 -8 -12 -10 -11 -10 7 0 12 5 25 10
28 16 10 3 22 -31 29 -24 5 -30 10 -27 28 2 13 10 24 19 26 14 3 61 -30 60
-42 -1 -3 2 -5 6 -3 5 1 7 4 6 7 -1 3 12 5 28 5 16 0 29 -4 29 -9 0 -28 13 19
54 198 46 198 47 215 13 216 -4 0 -4 8 1 18 10 19 4 102 -8 102 -4 0 -5 12 -2
26 2 14 1 29 -5 33 -21 14 -61 78 -68 108 -3 18 -11 35 -16 38 -5 4 -9 11 -9
17 0 6 11 -2 25 -18 14 -16 24 -33 22 -39 -2 -5 12 -24 30 -43 18 -18 31 -37
28 -41 -2 -5 4 -16 15 -26 17 -16 20 -16 20 -2 0 8 -5 17 -11 19 -6 2 9 31 34
64 51 70 75 110 58 100 -13 -8 6 40 25 64 10 13 44 117 73 223 8 31 7 38 -3
34 -9 -4 -11 2 -8 21 5 23 6 24 12 7 5 -14 15 6 38 75 34 101 39 130 21 130
-6 0 -9 7 -6 15 4 8 2 17 -4 21 -6 3 -8 13 -5 21 8 21 -31 93 -48 87 -7 -3
-21 7 -31 23 -10 15 -26 33 -34 40 -14 11 -14 13 4 27 12 10 29 14 45 10 28
-7 36 -8 68 -6 19 2 22 8 22 41 0 24 -6 44 -17 52 -14 13 -12 15 18 20 19 4
43 10 53 14 14 6 17 5 12 -3 -5 -8 -2 -10 10 -5 15 6 15 7 0 15 -14 8 -15 13
-5 24 9 12 15 12 27 2 13 -11 14 -10 3 10 -6 12 -8 22 -4 21 4 -1 17 -1 28 0
15 1 17 3 7 10 -11 7 -11 9 0 13 7 3 15 21 16 39 1 18 6 37 11 43 6 9 33 90
35 107 1 3 9 13 19 23 19 19 23 31 7 21 -5 -3 -10 1 -10 9 0 10 -6 13 -15 9
-9 -3 -15 -2 -14 3 4 17 -21 64 -34 64 -7 0 -20 8 -28 18 -15 17 -14 19 11 30
18 8 31 25 38 51 7 21 21 46 32 56 27 24 25 41 -5 61 -19 13 -23 20 -15 30 9
10 15 10 29 -4 10 -9 16 -21 14 -27 -3 -5 2 -2 11 9 13 16 13 20 1 32 -7 8
-17 23 -20 34 -4 11 -11 18 -16 15 -5 -4 -9 0 -9 7 0 7 -10 19 -21 27 -17 10
-19 15 -8 21 7 5 18 6 24 2 21 -13 36 -10 33 6 -2 9 -11 16 -21 16 -9 -1 -17
2 -17 7 0 5 -7 9 -15 9 -8 0 -15 5 -15 10 0 6 -5 10 -10 10 -6 0 -9 -3 -9 -7
3 -21 -2 -33 -16 -33 -8 0 -15 5 -15 10 0 6 -9 10 -21 10 -12 0 -17 4 -13 11
4 8 0 8 -15 0 -12 -7 -20 -8 -19 -4 1 4 -3 19 -9 33 -17 37 -26 64 -27 75 -1
6 -11 14 -24 20 -12 5 -25 18 -28 27 -3 10 -11 18 -17 18 -7 0 -18 9 -25 20
-7 11 -18 20 -25 20 -8 0 -31 13 -53 30 -21 16 -45 30 -51 30 -7 0 -13 5 -13
11 0 5 -13 15 -30 20 -33 12 -40 29 -12 29 22 -1 52 -24 52 -41 0 -9 3 -10 11
-2 7 7 21 8 42 2 18 -5 45 -9 62 -9 l30 1 -31 13 c-17 8 -40 22 -50 33 -29 29
-101 83 -111 83 -5 0 -15 9 -23 21 -8 11 -27 27 -42 35 -27 14 -37 37 -20 47
4 2 2 2 -5 1 -6 -2 -16 11 -22 28 -12 33 -34 33 -39 0 -2 -12 -8 -22 -14 -22
-5 0 -7 7 -4 15 4 11 -3 19 -20 25 -19 8 -24 15 -19 30 8 24 -17 52 -39 44
-11 -4 -14 0 -13 15 1 12 7 21 14 21 7 0 13 7 13 16 0 9 9 18 20 21 24 6 25
11 4 53 -12 23 -13 34 -5 39 6 4 14 21 17 38 6 30 5 31 -17 25 -19 -5 -20 -7
-6 -10 19 -4 23 -17 7 -27 -6 -3 -19 -23 -29 -42 l-18 -36 -19 22 c-10 12 -17
24 -16 28 2 3 -2 10 -10 14 -11 7 -10 11 2 19 13 8 12 10 -2 10 -10 0 -18 7
-18 16 0 14 3 14 15 4 12 -10 15 -9 15 4 0 15 2 15 25 0 24 -16 25 -15 25 5 0
16 -6 21 -24 21 -13 0 -26 6 -29 13 -8 22 -49 -24 -44 -50 2 -13 0 -23 -4 -23
-5 0 -6 -7 -2 -16 4 -12 2 -15 -8 -12 -8 3 -14 12 -14 22 0 22 -43 43 -85 41
-19 -1 -41 2 -47 8 -16 11 -18 51 -3 42 6 -4 17 -1 25 5 8 6 20 8 26 4 8 -5 9
-3 4 6 -6 10 -4 12 9 7 12 -5 16 -3 13 5 -2 7 -11 12 -19 10 -8 -1 -24 7 -36
18 -28 26 -32 25 -33 -7 -2 -24 -2 -25 -6 -5 -2 12 -11 22 -19 22 -8 0 -14 5
-14 10 0 6 -7 10 -15 10 -8 0 -15 4 -15 10 0 5 -25 21 -56 35 -58 26 -108 65
-85 65 8 0 3 8 -10 18 -44 31 -70 43 -82 35 -8 -4 -7 -1 1 10 8 9 10 22 6 28
-5 9 -11 7 -20 -5 -8 -11 -18 -15 -25 -10 -9 5 -7 9 7 14 17 7 16 9 -13 26
-18 11 -33 22 -33 25 0 10 93 -18 133 -40z m1087 39 c0 -5 -5 -10 -11 -10 -5
0 -7 5 -4 10 3 6 8 10 11 10 2 0 4 -4 4 -10z m2577 -17 c-3 -3 -11 -2 -17 2
-9 6 -9 10 1 16 14 8 27 -7 16 -18z m-3577 7 c0 -5 -7 -10 -15 -10 -8 0 -15 5
-15 10 0 6 7 10 15 10 8 0 15 -4 15 -10z m490 0 c0 -5 -5 -10 -11 -10 -5 0 -7
5 -4 10 3 6 8 10 11 10 2 0 4 -4 4 -10z m-1477 -15 c1 -5 -5 -11 -14 -13 -9
-2 -16 4 -16 13 0 17 27 17 30 0z m682 -6 c15 -15 -10 -11 -41 7 l-29 16 30
-7 c17 -3 34 -11 40 -16z m5990 11 c3 -5 1 -10 -4 -10 -6 0 -11 5 -11 10 0 6
2 10 4 10 3 0 8 -4 11 -10z m255 -10 c0 -5 -7 -10 -15 -10 -8 0 -15 5 -15 10
0 6 7 10 15 10 8 0 15 -4 15 -10z m-3110 -20 c0 -5 -7 -10 -15 -10 -8 0 -15 5
-15 10 0 6 7 10 15 10 8 0 15 -4 15 -10z m-3383 -6 c-3 -3 -12 -4 -19 -1 -8 3
-5 6 6 6 11 1 17 -2 13 -5z m323 -4 c0 -5 16 -12 35 -16 19 -3 35 -10 35 -14
0 -5 10 -11 23 -15 33 -9 67 -27 67 -36 0 -4 -12 -1 -27 7 -16 7 -34 14 -41
14 -14 0 -100 45 -116 61 -6 6 -3 9 7 9 9 0 17 -4 17 -10z m420 -10 c0 -5 -7
-10 -16 -10 -8 0 -12 5 -9 10 3 6 10 10 16 10 5 0 9 -4 9 -10z m2380 -6 c0 -8
-5 -12 -10 -9 -6 4 -8 11 -5 16 9 14 15 11 15 -7z m970 6 c0 -5 -9 -10 -21
-10 -11 0 -17 5 -14 10 3 6 13 10 21 10 8 0 14 -4 14 -10z m-3029 -23 c-13
-13 -26 -3 -16 12 3 6 11 8 17 5 6 -4 6 -10 -1 -17z m2384 3 c-3 -5 -10 -10
-16 -10 -5 0 -9 5 -9 10 0 6 7 10 16 10 8 0 12 -4 9 -10z m-730 -10 c3 -5 -1
-10 -10 -10 -9 0 -13 5 -10 10 3 6 8 10 10 10 2 0 7 -4 10 -10z m-955 -30 c0
-5 -4 -10 -10 -10 -5 0 -10 5 -10 10 0 6 5 10 10 10 6 0 10 -4 10 -10z m1570
-4 c0 -18 -16 -29 -30 -21 -13 8 -1 35 16 35 8 0 14 -6 14 -14z m-2220 -36 c0
-5 -2 -10 -4 -10 -3 0 -8 5 -11 10 -3 6 -1 10 4 10 6 0 11 -4 11 -10z m2860
-40 c0 -5 -4 -10 -10 -10 -5 0 -10 5 -10 10 0 6 5 10 10 10 6 0 10 -4 10 -10z
m-5253 -49 c0 -11 -6 -17 -14 -14 -18 7 -17 33 1 33 8 0 14 -8 13 -19z m4247
-7 c3 -8 2 -12 -4 -9 -6 3 -10 10 -10 16 0 14 7 11 14 -7z m1386 6 c0 -5 -7
-10 -15 -10 -8 0 -15 5 -15 10 0 6 7 10 15 10 8 0 15 -4 15 -10z m740 -20 c0
-5 -7 -10 -15 -10 -8 0 -15 5 -15 10 0 6 7 10 15 10 8 0 15 -4 15 -10z m-5950
-4 c0 -3 -4 -8 -10 -11 -5 -3 -10 -1 -10 4 0 6 5 11 10 11 6 0 10 -2 10 -4z
m3865 -15 c5 -1 4 -6 -3 -13 -9 -9 -16 -9 -29 4 -15 15 -15 16 3 13 10 -2 23
-4 29 -4z m2976 -4 c-1 -12 -15 -9 -19 4 -3 6 1 10 8 8 6 -3 11 -8 11 -12z
m-6301 -1 c0 -3 -4 -8 -10 -11 -5 -3 -10 -1 -10 4 0 6 5 11 10 11 6 0 10 -2
10 -4z m1550 -26 c0 -5 -5 -10 -11 -10 -5 0 -7 5 -4 10 3 6 8 10 11 10 2 0 4
-4 4 -10z m450 6 c0 -3 -4 -8 -10 -11 -5 -3 -10 -1 -10 4 0 6 5 11 10 11 6 0
10 -2 10 -4z m-2900 -66 c0 -5 -4 -10 -10 -10 -5 0 -10 5 -10 10 0 6 5 10 10
10 6 0 10 -4 10 -10z m2770 0 c0 -5 -4 -10 -10 -10 -5 0 -10 5 -10 10 0 6 5
10 10 10 6 0 10 -4 10 -10z m250 -50 c0 -13 -5 -18 -15 -14 -8 4 -15 12 -15
20 0 8 7 14 15 14 8 0 15 -9 15 -20z m2150 5 c0 -8 -7 -15 -15 -15 -8 0 -15 7
-15 15 0 8 7 15 15 15 8 0 15 -7 15 -15z m-2006 -28 c14 -13 23 -26 20 -30
-11 -11 -24 -8 -24 4 0 6 -10 19 -22 30 -13 10 -18 18 -12 19 6 0 23 -10 38
-23z m-1039 -7 c3 -5 1 -10 -4 -10 -6 0 -11 5 -11 10 0 6 2 10 4 10 3 0 8 -4
11 -10z m4510 -30 c-3 -5 -10 -10 -16 -10 -5 0 -9 5 -9 10 0 6 7 10 16 10 8 0
12 -4 9 -10z m-1518 -49 c3 -20 1 -21 -12 -7 -18 17 -20 39 -3 34 6 -2 13 -14
15 -27z m2628 19 c3 -5 1 -10 -4 -10 -6 0 -11 5 -11 10 0 6 2 10 4 10 3 0 8
-4 11 -10z m-4905 -10 c0 -5 -2 -10 -4 -10 -3 0 -8 5 -11 10 -3 6 -1 10 4 10
6 0 11 -4 11 -10z m4030 0 c0 -5 -4 -10 -10 -10 -5 0 -10 5 -10 10 0 6 5 10
10 10 6 0 10 -4 10 -10z m110 0 c0 -5 -4 -10 -9 -10 -6 0 -13 5 -16 10 -3 6 1
10 9 10 9 0 16 -4 16 -10z m-4810 -26 c0 -8 -4 -12 -10 -9 -5 3 -10 10 -10 16
0 5 5 9 10 9 6 0 10 -7 10 -16z m2594 -5 c-3 -5 -10 -7 -15 -3 -5 3 -7 10 -3
15 3 5 10 7 15 3 5 -3 7 -10 3 -15z m1356 1 c0 -5 -4 -10 -9 -10 -6 0 -13 5
-16 10 -3 6 1 10 9 10 9 0 16 -4 16 -10z m1290 -30 c0 -5 -4 -10 -10 -10 -5 0
-10 5 -10 10 0 6 5 10 10 10 6 0 10 -4 10 -10z m-6690 -15 c0 -8 -4 -15 -10
-15 -5 0 -10 7 -10 15 0 8 5 15 10 15 6 0 10 -7 10 -15z m5214 -16 c-3 -5 -10
-7 -15 -3 -5 3 -7 10 -3 15 3 5 10 7 15 3 5 -3 7 -10 3 -15z m487 8 c-1 -12
-15 -9 -19 4 -3 6 1 10 8 8 6 -3 11 -8 11 -12z m-1221 -1 c0 -3 -4 -8 -10 -11
-5 -3 -10 -1 -10 4 0 6 5 11 10 11 6 0 10 -2 10 -4z m-22 -47 c-2 -6 -8 -10
-13 -10 -5 0 -11 4 -13 10 -2 6 4 11 13 11 9 0 15 -5 13 -11z m487 1 c-3 -5
-10 -10 -16 -10 -5 0 -9 5 -9 10 0 6 7 10 16 10 8 0 12 -4 9 -10z m-3435 -20
c0 -5 -4 -10 -10 -10 -5 0 -10 5 -10 10 0 6 5 10 10 10 6 0 10 -4 10 -10z
m-480 -10 c0 -5 -5 -10 -11 -10 -5 0 -7 5 -4 10 3 6 8 10 11 10 2 0 4 -4 4
-10z m-100 -10 c0 -5 -7 -10 -16 -10 -8 0 -12 5 -9 10 3 6 10 10 16 10 5 0 9
-4 9 -10z m-370 -20 c0 -5 -7 -10 -15 -10 -8 0 -15 5 -15 10 0 6 7 10 15 10 8
0 15 -4 15 -10z m5730 -55 c0 -8 -7 -15 -15 -15 -16 0 -20 12 -8 23 11 12 23
8 23 -8z m560 -15 c0 -5 -7 -10 -15 -10 -8 0 -15 5 -15 10 0 6 7 10 15 10 8 0
15 -4 15 -10z m-5395 -10 c-3 -5 -11 -10 -16 -10 -6 0 -7 5 -4 10 3 6 11 10
16 10 6 0 7 -4 4 -10z m3633 -124 c3 -11 -1 -17 -9 -14 -7 2 -13 12 -15 22 -3
23 20 15 24 -8z m-363 -26 c3 -6 -1 -13 -10 -16 -19 -8 -30 0 -20 15 8 14 22
14 30 1z m1820 0 c3 -5 -1 -10 -9 -10 -9 0 -16 5 -16 10 0 6 4 10 9 10 6 0 13
-4 16 -10z m-265 -40 c0 -5 -7 -10 -15 -10 -8 0 -15 5 -15 10 0 6 7 10 15 10
8 0 15 -4 15 -10z m-1630 -35 c0 -8 -7 -15 -15 -15 -16 0 -20 12 -8 23 11 12
23 8 23 -8z m-4815 -5 c3 -5 1 -10 -4 -10 -6 0 -11 5 -11 10 0 6 2 10 4 10 3
0 8 -4 11 -10z m1990 -1 c11 -17 -1 -21 -15 -4 -8 9 -8 15 -2 15 6 0 14 -5 17
-11z m-830 -19 c3 -5 -1 -10 -10 -10 -9 0 -13 5 -10 10 3 6 8 10 10 10 2 0 7
-4 10 -10z m3362 -26 c17 -17 22 -29 15 -36 -12 -12 -72 28 -72 49 0 21 29 15
57 -13z m1360 0 c-3 -3 -12 -4 -19 -1 -8 3 -5 6 6 6 11 1 17 -2 13 -5z m-5326
-17 c-1 -12 -15 -9 -19 4 -3 6 1 10 8 8 6 -3 11 -8 11 -12z m5179 3 c0 -5 -2
-10 -4 -10 -3 0 -8 5 -11 10 -3 6 -1 10 4 10 6 0 11 -4 11 -10z m-5880 -10 c0
-5 -4 -10 -10 -10 -5 0 -10 5 -10 10 0 6 5 10 10 10 6 0 10 -4 10 -10z m1670
6 c0 -3 -4 -8 -10 -11 -5 -3 -10 -1 -10 4 0 6 5 11 10 11 6 0 10 -2 10 -4z
m3470 -6 c0 -5 -7 -10 -15 -10 -8 0 -15 5 -15 10 0 6 7 10 15 10 8 0 15 -4 15
-10z m65 0 c3 -5 -1 -10 -10 -10 -9 0 -13 5 -10 10 3 6 8 10 10 10 2 0 7 -4
10 -10z m-4735 -18 c0 -13 -12 -22 -22 -16 -10 6 -1 24 13 24 5 0 9 -4 9 -8z
m5302 -24 c-9 -9 -15 -9 -24 0 -10 10 -10 15 2 22 9 6 19 5 24 0 7 -7 6 -14
-2 -22z m-27 -58 c3 -5 1 -10 -4 -10 -6 0 -11 5 -11 10 0 6 2 10 4 10 3 0 8
-4 11 -10z m-205 -10 c0 -5 -4 -10 -10 -10 -5 0 -10 5 -10 10 0 6 5 10 10 10
6 0 10 -4 10 -10z m-4600 -10 c0 -5 -7 -10 -15 -10 -8 0 -15 5 -15 10 0 6 7
10 15 10 8 0 15 -4 15 -10z m1307 -12 c-3 -8 -6 -5 -6 6 -1 11 2 17 5 13 3 -3
4 -12 1 -19z m81 -36 c-4 -20 -28 -28 -28 -9 0 8 -7 17 -15 21 -8 3 -15 12
-15 20 0 12 4 12 31 -1 18 -9 29 -21 27 -31z m3927 8 c3 -5 1 -10 -4 -10 -6 0
-11 5 -11 10 0 6 2 10 4 10 3 0 8 -4 11 -10z m-3889 -52 c42 -41 69 -63 76
-63 3 0 10 -3 14 -7 4 -5 -4 -8 -17 -8 -20 0 -21 -2 -9 -11 13 -9 13 -10 0 -6
-8 2 -14 10 -12 16 1 6 -9 11 -21 11 -14 0 -35 13 -50 30 -46 51 -29 84 19 38z
m4854 -8 c0 -5 -2 -10 -4 -10 -3 0 -8 5 -11 10 -3 6 -1 10 4 10 6 0 11 -4 11
-10z m-6715 -20 c-3 -5 -10 -10 -16 -10 -5 0 -9 5 -9 10 0 6 7 10 16 10 8 0
12 -4 9 -10z m-105 -20 c0 -5 -4 -10 -10 -10 -5 0 -10 5 -10 10 0 6 5 10 10
10 6 0 10 -4 10 -10z m570 -45 c0 -19 -5 -25 -22 -25 -32 0 -46 12 -42 34 7
44 64 36 64 -9z m4220 25 c0 -5 -7 -10 -15 -10 -8 0 -15 5 -15 10 0 6 7 10 15
10 8 0 15 -4 15 -10z m264 -61 c-3 -5 -10 -7 -15 -3 -5 3 -7 10 -3 15 3 5 10
7 15 3 5 -3 7 -10 3 -15z m-3020 -20 c-3 -5 -10 -7 -15 -3 -5 3 -7 10 -3 15 3
5 10 7 15 3 5 -3 7 -10 3 -15z m-543 -12 c-13 -13 -26 -3 -16 12 3 6 11 8 17
5 6 -4 6 -10 -1 -17z m-541 -2 c0 -8 -4 -15 -10 -15 -5 0 -10 7 -10 15 0 8 5
15 10 15 6 0 10 -7 10 -15z m-1115 -5 c-3 -5 -10 -10 -16 -10 -5 0 -9 5 -9 10
0 6 7 10 16 10 8 0 12 -4 9 -10z m1555 -14 c0 -3 -4 -8 -10 -11 -5 -3 -10 -1
-10 4 0 6 5 11 10 11 6 0 10 -2 10 -4z m3210 -26 c0 -5 -4 -10 -10 -10 -5 0
-10 5 -10 10 0 6 5 10 10 10 6 0 10 -4 10 -10z m-3810 -15 c0 -8 -4 -15 -9
-15 -13 0 -22 16 -14 24 11 11 23 6 23 -9z m3594 -9 c-3 -9 -13 -16 -22 -16
-13 0 -12 3 4 19 22 21 27 21 18 -3z m1606 20 c0 -3 -4 -8 -10 -11 -5 -3 -10
-1 -10 4 0 6 5 11 10 11 6 0 10 -2 10 -4z m-6607 -49 c-4 -7 -8 -15 -9 -19 -1
-5 -2 -11 -3 -15 0 -4 -6 -2 -12 4 -13 13 7 57 22 48 5 -4 6 -12 2 -18z m642
14 c7 -12 -12 -24 -25 -16 -11 7 -4 25 10 25 5 0 11 -4 15 -9z m4658 -6 c1 -5
-6 -11 -15 -13 -11 -2 -18 3 -18 13 0 17 30 18 33 0z m79 -14 c11 -13 24 -18
39 -14 14 4 20 2 15 -5 -7 -13 -74 -8 -88 6 -10 10 -3 32 10 32 4 0 15 -9 24
-19z m-4532 -41 c0 -5 -4 -10 -10 -10 -5 0 -10 5 -10 10 0 6 5 10 10 10 6 0
10 -4 10 -10z m6540 -10 c0 -5 -4 -10 -10 -10 -5 0 -10 5 -10 10 0 6 5 10 10
10 6 0 10 -4 10 -10z m-950 -10 c0 -5 -4 -10 -10 -10 -5 0 -10 5 -10 10 0 6 5
10 10 10 6 0 10 -4 10 -10z m-6550 -10 c0 -5 -4 -10 -9 -10 -6 0 -13 5 -16 10
-3 6 1 10 9 10 9 0 16 -4 16 -10z m1875 -21 c10 -15 -1 -23 -20 -15 -9 3 -13
10 -10 16 8 13 22 13 30 -1z m3383 0 c-2 -6 -8 -10 -13 -10 -5 0 -11 4 -13 10
-2 6 4 11 13 11 9 0 15 -5 13 -11z m182 -9 c0 -5 -4 -10 -9 -10 -6 0 -13 5
-16 10 -3 6 1 10 9 10 9 0 16 -4 16 -10z m-5522 -32 c-6 -18 -28 -21 -28 -4 0
9 7 16 16 16 9 0 14 -5 12 -12z m2127 -38 c-5 -8 -11 -8 -17 -2 -6 6 -7 16 -3
22 5 8 11 8 17 2 6 -6 7 -16 3 -22z m45 10 c0 -5 -5 -10 -11 -10 -5 0 -7 5 -4
10 3 6 8 10 11 10 2 0 4 -4 4 -10z m3098 -18 c2 -7 -2 -10 -12 -6 -9 3 -16 11
-16 16 0 13 23 5 28 -10z m-3338 -7 c0 -8 -7 -15 -15 -15 -16 0 -20 12 -8 23
11 12 23 8 23 -8z m740 11 c0 -11 -19 -15 -25 -6 -3 5 1 10 9 10 9 0 16 -2 16
-4z m-2115 -45 c3 -5 1 -12 -5 -16 -5 -3 -10 1 -10 9 0 18 6 21 15 7z m1805
-1 c0 -5 -7 -10 -15 -10 -8 0 -15 5 -15 10 0 6 7 10 15 10 8 0 15 -4 15 -10z
m-173 -6 c-3 -3 -12 -4 -19 -1 -8 3 -5 6 6 6 11 1 17 -2 13 -5z m473 -34 c0
-5 -4 -10 -10 -10 -5 0 -10 5 -10 10 0 6 5 10 10 10 6 0 10 -4 10 -10z m2645
0 c3 -5 -3 -10 -15 -10 -12 0 -18 5 -15 10 3 6 10 10 15 10 5 0 12 -4 15 -10z
m205 0 c0 -5 -4 -10 -10 -10 -5 0 -10 5 -10 10 0 6 5 10 10 10 6 0 10 -4 10
-10z m-2735 -20 c3 -5 1 -10 -4 -10 -6 0 -11 5 -11 10 0 6 2 10 4 10 3 0 8 -4
11 -10z m-210 -30 c-3 -5 -10 -10 -16 -10 -5 0 -9 5 -9 10 0 6 7 10 16 10 8 0
12 -4 9 -10z m3325 -80 c0 -5 -4 -10 -10 -10 -5 0 -10 5 -10 10 0 6 5 10 10
10 6 0 10 -4 10 -10z m-5520 -20 c0 -5 -5 -10 -11 -10 -5 0 -7 5 -4 10 3 6 8
10 11 10 2 0 4 -4 4 -10z m530 -10 c0 -5 -7 -10 -15 -10 -8 0 -15 5 -15 10 0
6 7 10 15 10 8 0 15 -4 15 -10z m1525 -67 c43 -35 47 -58 8 -48 -28 6 -70 38
-86 63 -5 7 -18 22 -30 33 l-22 20 48 -20 c26 -11 63 -33 82 -48z m4590 57
c-3 -5 -11 -10 -16 -10 -6 0 -7 5 -4 10 3 6 11 10 16 10 6 0 7 -4 4 -10z
m-4735 -10 c0 -5 -5 -10 -11 -10 -5 0 -7 5 -4 10 3 6 8 10 11 10 2 0 4 -4 4
-10z m3095 0 c3 -6 -1 -7 -9 -4 -18 7 -21 14 -7 14 6 0 13 -4 16 -10z m-5371
-41 c-3 -5 -10 -7 -15 -3 -5 3 -7 10 -3 15 3 5 10 7 15 3 5 -3 7 -10 3 -15z
m876 11 c0 -5 -5 -10 -11 -10 -5 0 -7 5 -4 10 3 6 8 10 11 10 2 0 4 -4 4 -10z
m6840 0 c0 -5 -4 -10 -10 -10 -5 0 -10 5 -10 10 0 6 5 10 10 10 6 0 10 -4 10
-10z m-270 -10 c0 -5 -2 -10 -4 -10 -3 0 -8 5 -11 10 -3 6 -1 10 4 10 6 0 11
-4 11 -10z m-6110 -49 c0 -12 -20 -25 -27 -18 -7 7 6 27 18 27 5 0 9 -4 9 -9z
m5980 -6 c0 -8 -4 -15 -9 -15 -13 0 -22 16 -14 24 11 11 23 6 23 -9z m-7020
-5 c0 -5 -7 -10 -16 -10 -8 0 -12 5 -9 10 3 6 10 10 16 10 5 0 9 -4 9 -10z
m5030 -41 c0 -5 -4 -9 -10 -9 -5 0 -10 7 -10 16 0 8 5 12 10 9 6 -3 10 -10 10
-16z m-4215 -18 c7 -12 -12 -24 -25 -16 -11 7 -4 25 10 25 5 0 11 -4 15 -9z
m5725 -1 c0 -5 -4 -10 -10 -10 -5 0 -10 5 -10 10 0 6 5 10 10 10 6 0 10 -4 10
-10z m-4287 -7 c-7 -2 -19 -2 -25 0 -7 3 -2 5 12 5 14 0 19 -2 13 -5z m-1723
-21 c0 -13 -12 -22 -22 -16 -10 6 -1 24 13 24 5 0 9 -4 9 -8z m4850 -12 c0 -5
-2 -10 -4 -10 -3 0 -8 5 -11 10 -3 6 -1 10 4 10 6 0 11 -4 11 -10z m1000 -20
c0 -5 -4 -10 -9 -10 -6 0 -13 5 -16 10 -3 6 1 10 9 10 9 0 16 -4 16 -10z
m-4580 -10 c0 -5 -2 -10 -4 -10 -3 0 -8 5 -11 10 -3 6 -1 10 4 10 6 0 11 -4
11 -10z m-1790 -21 c0 -5 -4 -9 -10 -9 -5 0 -10 7 -10 16 0 8 5 12 10 9 6 -3
10 -10 10 -16z m2020 0 c0 -5 -7 -9 -15 -9 -15 0 -20 12 -9 23 8 8 24 -1 24
-14z m4800 -29 c0 -5 -4 -10 -10 -10 -5 0 -10 5 -10 10 0 6 5 10 10 10 6 0 10
-4 10 -10z m-1135 -10 c3 -5 -1 -10 -10 -10 -9 0 -13 5 -10 10 3 6 8 10 10 10
2 0 7 -4 10 -10z m-4995 -10 c0 -5 -4 -10 -10 -10 -5 0 -10 5 -10 10 0 6 5 10
10 10 6 0 10 -4 10 -10z m1510 -10 c0 -5 -5 -10 -11 -10 -5 0 -7 5 -4 10 3 6
8 10 11 10 2 0 4 -4 4 -10z m-1850 -20 c0 -5 -4 -10 -10 -10 -5 0 -10 5 -10
10 0 6 5 10 10 10 6 0 10 -4 10 -10z m90 -14 c0 -3 -4 -8 -10 -11 -5 -3 -10
-1 -10 4 0 6 5 11 10 11 6 0 10 -2 10 -4z m1160 -6 c0 -5 -4 -10 -10 -10 -5 0
-10 5 -10 10 0 6 5 10 10 10 6 0 10 -4 10 -10z m-1040 -35 c0 -8 -4 -15 -9
-15 -13 0 -22 16 -14 24 11 11 23 6 23 -9z m6120 -9 c0 -3 -4 -8 -10 -11 -5
-3 -10 -1 -10 4 0 6 5 11 10 11 6 0 10 -2 10 -4z m-6385 -106 c-3 -5 -10 -10
-16 -10 -5 0 -9 5 -9 10 0 6 7 10 16 10 8 0 12 -4 9 -10z m685 -20 c0 -5 -4
-10 -10 -10 -5 0 -10 5 -10 10 0 6 5 10 10 10 6 0 10 -4 10 -10z m470 -10 c0
-5 -2 -10 -4 -10 -3 0 -8 5 -11 10 -3 6 -1 10 4 10 6 0 11 -4 11 -10z m-520
-10 c0 -5 -4 -10 -10 -10 -5 0 -10 5 -10 10 0 6 5 10 10 10 6 0 10 -4 10 -10z
m4511 -25 c-1 -15 -24 -12 -29 3 -3 9 2 13 12 10 10 -1 17 -7 17 -13z m-3731
-9 c0 -3 -4 -8 -10 -11 -5 -3 -10 -1 -10 4 0 6 5 11 10 11 6 0 10 -2 10 -4z
m151 -168 c45 -43 59 -64 59 -86 0 -15 9 -47 20 -70 42 -86 26 -82 -79 17
l-84 80 6 61 7 60 -35 17 c-19 9 -35 20 -35 24 0 4 -3 14 -6 23 -4 11 -1 16
10 16 9 0 16 7 16 16 0 9 14 -10 31 -42 18 -32 58 -85 90 -116z m-1381 128 c0
-3 -4 -8 -10 -11 -5 -3 -10 -1 -10 4 0 6 5 11 10 11 6 0 10 -2 10 -4z m6600
-16 c0 -5 7 -7 15 -4 9 4 15 0 15 -10 0 -19 -9 -20 -32 -2 -20 15 -23 26 -8
26 6 0 10 -4 10 -10z m-7310 -30 c0 -5 -4 -10 -10 -10 -5 0 -10 5 -10 10 0 6
5 10 10 10 6 0 10 -4 10 -10z m1555 0 c-3 -5 -10 -10 -16 -10 -5 0 -9 5 -9 10
0 6 7 10 16 10 8 0 12 -4 9 -10z m-1655 -10 c0 -5 -4 -10 -10 -10 -5 0 -10 5
-10 10 0 6 5 10 10 10 6 0 10 -4 10 -10z m1430 -40 c0 -5 -4 -10 -10 -10 -5 0
-10 5 -10 10 0 6 5 10 10 10 6 0 10 -4 10 -10z m105 -10 c3 -5 1 -10 -4 -10
-6 0 -11 5 -11 10 0 6 2 10 4 10 3 0 8 -4 11 -10z m4505 0 c0 -5 -2 -10 -4
-10 -3 0 -8 5 -11 10 -3 6 -1 10 4 10 6 0 11 -4 11 -10z m-5305 -108 c0 -18
-20 -15 -23 4 -3 10 1 15 10 12 7 -3 13 -10 13 -16z m5025 -32 c0 -5 -4 -10
-10 -10 -5 0 -10 5 -10 10 0 6 5 10 10 10 6 0 10 -4 10 -10z m1070 -60 c0 -5
-2 -10 -4 -10 -3 0 -8 5 -11 10 -3 6 -1 10 4 10 6 0 11 -4 11 -10z m-730 -14
c0 -3 -4 -8 -10 -11 -5 -3 -10 -1 -10 4 0 6 5 11 10 11 6 0 10 -2 10 -4z
m-4695 -36 c-3 -5 -10 -10 -16 -10 -5 0 -9 5 -9 10 0 6 7 10 16 10 8 0 12 -4
9 -10z m921 -50 c21 -8 24 -16 24 -61 0 -33 -6 -60 -18 -77 -10 -15 -22 -35
-25 -44 -4 -10 -13 -18 -22 -18 -20 0 -19 34 1 51 8 7 22 25 30 41 16 30 17
29 -33 44 -7 2 -13 12 -13 23 0 26 23 77 28 61 2 -6 15 -15 28 -20z m-776 0
c0 -5 -7 -10 -15 -10 -8 0 -15 5 -15 10 0 6 7 10 15 10 8 0 15 -4 15 -10z
m4550 -70 c0 -5 -5 -10 -11 -10 -5 0 -7 5 -4 10 3 6 8 10 11 10 2 0 4 -4 4
-10z m-4038 -25 c0 -5 -5 -11 -11 -13 -6 -2 -11 4 -11 13 0 9 5 15 11 13 6 -2
11 -8 11 -13z m-246 -16 c10 -17 -13 -36 -27 -22 -12 12 -4 33 11 33 5 0 12
-5 16 -11z m4528 -10 c-3 -5 -10 -7 -15 -3 -5 3 -7 10 -3 15 3 5 10 7 15 3 5
-3 7 -10 3 -15z m-4644 -19 c0 -5 -4 -10 -10 -10 -5 0 -10 5 -10 10 0 6 5 10
10 10 6 0 10 -4 10 -10z m560 -79 c0 -5 -7 -11 -15 -15 -15 -5 -20 5 -8 17 9
10 23 9 23 -2z m-140 -27 c0 -8 -5 -12 -10 -9 -6 4 -8 11 -5 16 9 14 15 11 15
-7z m-1990 -4 c0 -5 -4 -10 -10 -10 -5 0 -10 5 -10 10 0 6 5 10 10 10 6 0 10
-4 10 -10z m1630 -34 c0 -3 -4 -8 -10 -11 -5 -3 -10 -1 -10 4 0 6 5 11 10 11
6 0 10 -2 10 -4z m-388 -58 c-7 -7 -12 -8 -12 -2 0 14 12 26 19 19 2 -3 -1
-11 -7 -17z m-1262 -79 c0 -5 -7 -9 -15 -9 -15 0 -20 12 -9 23 8 8 24 -1 24
-14z m5950 -43 c0 -11 -19 -15 -25 -6 -3 5 1 10 9 10 9 0 16 -2 16 -4z m-4140
-16 c0 -5 -4 -10 -10 -10 -5 0 -10 5 -10 10 0 6 5 10 10 10 6 0 10 -4 10 -10z
m4228 -38 c2 -7 -3 -12 -12 -12 -9 0 -16 7 -16 16 0 17 22 14 28 -4z m-4133
-56 c-4 -44 -3 -70 6 -83 13 -21 5 -93 -11 -93 -17 0 -24 25 -27 90 -2 58 19
150 35 150 2 0 1 -29 -3 -64z m-475 29 c0 -8 -7 -15 -15 -15 -8 0 -15 7 -15
15 0 8 7 15 15 15 8 0 15 -7 15 -15z m5760 -15 c0 -5 -7 -10 -15 -10 -8 0 -15
5 -15 10 0 6 7 10 15 10 8 0 15 -4 15 -10z m-909 -43 c-13 -13 -26 -3 -16 12
3 6 11 8 17 5 6 -4 6 -10 -1 -17z m609 -67 c0 -5 -4 -10 -10 -10 -5 0 -10 5
-10 10 0 6 5 10 10 10 6 0 10 -4 10 -10z m-280 -20 c0 -5 -4 -10 -10 -10 -5 0
-10 5 -10 10 0 6 5 10 10 10 6 0 10 -4 10 -10z m-6250 -10 c0 -5 -4 -10 -10
-10 -5 0 -10 5 -10 10 0 6 5 10 10 10 6 0 10 -4 10 -10z m1746 -61 c10 -17
-13 -36 -27 -22 -12 12 -4 33 11 33 5 0 12 -5 16 -11z m-1596 -9 c0 -5 -4 -10
-10 -10 -5 0 -10 5 -10 10 0 6 5 10 10 10 6 0 10 -4 10 -10z m110 -10 c0 -5
-4 -10 -10 -10 -5 0 -10 5 -10 10 0 6 5 10 10 10 6 0 10 -4 10 -10z m1272 -5
c0 -5 -5 -11 -11 -13 -6 -2 -11 4 -11 13 0 9 5 15 11 13 6 -2 11 -8 11 -13z
m-277 -45 c0 -8 -8 -16 -17 -18 -13 -2 -18 3 -18 18 0 15 5 20 18 18 9 -2 17
-10 17 -18z m365 6 c0 -9 -8 -12 -25 -8 -14 2 -25 8 -25 13 0 5 11 9 25 9 14
0 25 -6 25 -14z m5388 -27 c-2 -6 -8 -10 -13 -10 -5 0 -11 4 -13 10 -2 6 4 11
13 11 9 0 15 -5 13 -11z m-5280 -36 c3 -19 -1 -23 -22 -23 -28 0 -41 14 -32
36 9 24 50 13 54 -13z m5257 -13 c3 -5 1 -10 -4 -10 -6 0 -11 5 -11 10 0 6 2
10 4 10 3 0 8 -4 11 -10z m-5200 -138 c-3 -3 -11 0 -18 7 -9 10 -8 11 6 5 10
-3 15 -9 12 -12z m3821 -83 c10 -17 -13 -36 -27 -22 -12 12 -4 33 11 33 5 0
12 -5 16 -11z m-5271 -79 c-3 -5 -10 -10 -16 -10 -5 0 -9 5 -9 10 0 6 7 10 16
10 8 0 12 -4 9 -10z m1165 -5 c0 -8 -7 -15 -15 -15 -8 0 -15 7 -15 15 0 8 7
15 15 15 8 0 15 -7 15 -15z m5600 -25 c0 -5 -4 -10 -10 -10 -5 0 -10 5 -10 10
0 6 5 10 10 10 6 0 10 -4 10 -10z m-2615 -150 c-5 -8 -11 -8 -17 -2 -6 6 -7
16 -3 22 5 8 11 8 17 2 6 -6 7 -16 3 -22z m-484 -70 c43 -24 9 -82 -36 -62
-29 13 -32 34 -9 56 18 19 20 19 45 6z m-3601 -30 c0 -5 -4 -10 -10 -10 -5 0
-10 5 -10 10 0 6 5 10 10 10 6 0 10 -4 10 -10z m906 -41 c10 -16 -9 -29 -34
-23 -35 10 -26 25 20 33 4 0 10 -4 14 -10z m-656 -19 c0 -5 -4 -10 -10 -10 -5
0 -10 5 -10 10 0 6 5 10 10 10 6 0 10 -4 10 -10z m178 -12 c-7 -19 -38 -22
-38 -4 0 10 9 16 21 16 12 0 19 -5 17 -12z m27 -58 c3 -5 1 -10 -4 -10 -6 0
-11 5 -11 10 0 6 2 10 4 10 3 0 8 -4 11 -10z m3855 -55 c0 -8 -4 -15 -10 -15
-5 0 -10 7 -10 15 0 8 5 15 10 15 6 0 10 -7 10 -15z m-540 -11 c0 -8 -4 -12
-10 -9 -5 3 -10 10 -10 16 0 5 5 9 10 9 6 0 10 -7 10 -16z m-3820 -14 c0 -5
-2 -10 -4 -10 -3 0 -8 5 -11 10 -3 6 -1 10 4 10 6 0 11 -4 11 -10z m3870 -60
c0 -5 -5 -10 -11 -10 -5 0 -7 5 -4 10 3 6 8 10 11 10 2 0 4 -4 4 -10z m-2922
-22 c-7 -19 -38 -22 -38 -4 0 10 9 16 21 16 12 0 19 -5 17 -12z m4972 2 c0 -5
-4 -10 -10 -10 -5 0 -10 5 -10 10 0 6 5 10 10 10 6 0 10 -4 10 -10z m-5400
-30 c0 -5 -4 -10 -10 -10 -5 0 -10 5 -10 10 0 6 5 10 10 10 6 0 10 -4 10 -10z
m520 -10 c0 -5 -4 -10 -10 -10 -5 0 -10 5 -10 10 0 6 5 10 10 10 6 0 10 -4 10
-10z m2010 0 c0 -5 -4 -10 -10 -10 -5 0 -10 5 -10 10 0 6 5 10 10 10 6 0 10
-4 10 -10z m145 -10 c3 -6 -1 -13 -10 -16 -19 -8 -30 0 -20 15 8 14 22 14 30
1z m250 -39 c7 -12 -12 -24 -25 -16 -11 7 -4 25 10 25 5 0 11 -4 15 -9z
m-2785 -90 c0 -6 -4 -13 -10 -16 -5 -3 -10 1 -10 9 0 9 5 16 10 16 6 0 10 -4
10 -9z m3685 -62 c0 -7 -8 -15 -17 -17 -18 -3 -25 18 -11 32 10 10 28 1 28
-15z m-3957 0 c-2 -6 -8 -10 -13 -10 -5 0 -11 4 -13 10 -2 6 4 11 13 11 9 0
15 -5 13 -11z m1843 -102 c-1 -12 -15 -9 -19 4 -3 6 1 10 8 8 6 -3 11 -8 11
-12z m1729 -22 c0 -19 -34 -37 -54 -29 -22 8 -21 51 2 57 23 5 52 -10 52 -28z
m-4740 -60 c0 -8 -7 -15 -15 -15 -16 0 -20 12 -8 23 11 12 23 8 23 -8z m4470
-55 c0 -5 -4 -10 -10 -10 -5 0 -10 5 -10 10 0 6 5 10 10 10 6 0 10 -4 10 -10z
m345 0 c3 -5 -1 -10 -9 -10 -9 0 -16 5 -16 10 0 6 4 10 9 10 6 0 13 -4 16 -10z
m2385 -90 c0 -5 -4 -10 -9 -10 -6 0 -13 5 -16 10 -3 6 1 10 9 10 9 0 16 -4 16
-10z m-5760 -18 c0 -13 -12 -22 -22 -16 -10 6 -1 24 13 24 5 0 9 -4 9 -8z
m-10 -41 c0 -17 -18 -21 -24 -6 -3 9 0 15 9 15 8 0 15 -4 15 -9z m5312 -106
c0 -5 -5 -11 -11 -13 -6 -2 -11 4 -11 13 0 9 5 15 11 13 6 -2 11 -8 11 -13z
m-6536 -42 c-10 -10 -19 5 -10 18 6 11 8 11 12 0 2 -7 1 -15 -2 -18z m3989 18
c3 -5 1 -12 -5 -16 -5 -3 -10 1 -10 9 0 18 6 21 15 7z m2765 -49 c0 -13 -12
-22 -22 -16 -10 6 -1 24 13 24 5 0 9 -4 9 -8z m-6400 -27 c0 -8 -7 -15 -15
-15 -16 0 -20 12 -8 23 11 12 23 8 23 -8z m740 -31 c0 -9 -5 -14 -12 -12 -18
6 -21 28 -4 28 9 0 16 -7 16 -16z m198 -42 c2 -7 -6 -12 -17 -12 -21 0 -27 11
-14 24 9 9 26 2 31 -12z m3522 -27 c0 -8 -4 -15 -10 -15 -5 0 -10 7 -10 15 0
8 5 15 10 15 6 0 10 -7 10 -15z m-2330 -10 c0 -8 -7 -15 -15 -15 -16 0 -20 12
-8 23 11 12 23 8 23 -8z m1860 -100 c0 -8 -4 -15 -10 -15 -5 0 -10 7 -10 15 0
8 5 15 10 15 6 0 10 -7 10 -15z m2110 -5 c0 -5 -4 -10 -10 -10 -5 0 -10 5 -10
10 0 6 5 10 10 10 6 0 10 -4 10 -10z m-4833 -32 c-3 -8 -6 -5 -6 6 -1 11 2 17
5 13 3 -3 4 -12 1 -19z m1233 -32 c0 -3 -4 -8 -10 -11 -5 -3 -10 -1 -10 4 0 6
5 11 10 11 6 0 10 -2 10 -4z m2795 -6 c3 -5 1 -10 -4 -10 -6 0 -11 5 -11 10 0
6 2 10 4 10 3 0 8 -4 11 -10z m-365 -61 c0 -5 -7 -9 -15 -9 -15 0 -20 12 -9
23 8 8 24 -1 24 -14z m-2040 -69 c0 -5 -2 -10 -4 -10 -3 0 -8 5 -11 10 -3 6
-1 10 4 10 6 0 11 -4 11 -10z m3140 -20 c0 -5 -5 -10 -11 -10 -5 0 -7 5 -4 10
3 6 8 10 11 10 2 0 4 -4 4 -10z m-1330 -8 c0 -13 -12 -22 -22 -16 -10 6 -1 24
13 24 5 0 9 -4 9 -8z m-5110 -27 c0 -8 -9 -15 -20 -15 -22 0 -27 15 -7 23 21
9 27 7 27 -8z m3760 -5 c0 -5 -7 -10 -15 -10 -8 0 -15 5 -15 10 0 6 7 10 15
10 8 0 15 -4 15 -10z m3420 -75 c0 -8 -4 -15 -9 -15 -13 0 -22 16 -14 24 11
11 23 6 23 -9z m-1955 -14 c7 -12 -12 -24 -25 -16 -11 7 -4 25 10 25 5 0 11
-4 15 -9z m-3825 -41 c0 -5 -5 -10 -11 -10 -5 0 -7 5 -4 10 3 6 8 10 11 10 2
0 4 -4 4 -10z m4700 -20 c0 -5 -5 -10 -11 -10 -5 0 -7 5 -4 10 3 6 8 10 11 10
2 0 4 -4 4 -10z m-3680 -10 c0 -5 -4 -10 -10 -10 -5 0 -10 5 -10 10 0 6 5 10
10 10 6 0 10 -4 10 -10z m3192 -42 c-15 -15 -26 -4 -18 18 5 13 9 15 18 6 9
-9 9 -15 0 -24z m1688 22 c0 -5 -4 -10 -10 -10 -5 0 -10 5 -10 10 0 6 5 10 10
10 6 0 10 -4 10 -10z m-790 -15 c0 -8 -4 -15 -9 -15 -13 0 -22 16 -14 24 11
11 23 6 23 -9z m480 -65 c0 -5 -4 -10 -10 -10 -5 0 -10 5 -10 10 0 6 5 10 10
10 6 0 10 -4 10 -10z m-1720 -46 c0 -8 -4 -12 -10 -9 -5 3 -10 10 -10 16 0 5
5 9 10 9 6 0 10 -7 10 -16z m-1375 -54 c3 -6 -1 -13 -10 -16 -19 -8 -30 0 -20
15 8 14 22 14 30 1z m565 0 c0 -5 -4 -10 -10 -10 -5 0 -10 5 -10 10 0 6 5 10
10 10 6 0 10 -4 10 -10z m-1879 -83 c-13 -13 -26 -3 -16 12 3 6 11 8 17 5 6
-4 6 -10 -1 -17z m69 -12 c0 -8 -4 -15 -10 -15 -5 0 -10 7 -10 15 0 8 5 15 10
15 6 0 10 -7 10 -15z m960 11 c0 -11 -19 -15 -25 -6 -3 5 1 10 9 10 9 0 16 -2
16 -4z m50 -157 c0 -12 -29 -24 -37 -16 -3 4 -3 13 0 21 6 16 37 11 37 -5z
m184 -80 c-3 -5 -10 -7 -15 -3 -5 3 -7 10 -3 15 3 5 10 7 15 3 5 -3 7 -10 3
-15z m-3717 -25 c-9 -9 -28 6 -21 18 4 6 10 6 17 -1 6 -6 8 -13 4 -17z m601 5
c-2 -6 -8 -10 -13 -10 -5 0 -11 4 -13 10 -2 6 4 11 13 11 9 0 15 -5 13 -11z
m2933 -62 c-13 -13 -26 -3 -16 12 3 6 11 8 17 5 6 -4 6 -10 -1 -17z m-3230
-20 c-1 -12 -15 -9 -19 4 -3 6 1 10 8 8 6 -3 11 -8 11 -12z m5739 9 c0 -3 -4
-8 -10 -11 -5 -3 -10 -1 -10 4 0 6 5 11 10 11 6 0 10 -2 10 -4z m-3865 -115
c7 -12 -12 -24 -25 -16 -11 7 -4 25 10 25 5 0 11 -4 15 -9z m525 -151 c0 -5
-4 -10 -10 -10 -5 0 -10 5 -10 10 0 6 5 10 10 10 6 0 10 -4 10 -10z"/>
<path d="M2085 6860 c-3 -5 1 -10 10 -10 9 0 13 5 10 10 -3 6 -8 10 -10 10 -2
0 -7 -4 -10 -10z"/>
<path d="M2488 6728 c9 -9 15 -9 24 0 9 9 7 12 -12 12 -19 0 -21 -3 -12 -12z"/>
<path d="M2407 6709 c7 -7 15 -10 18 -7 3 3 -2 9 -12 12 -14 6 -15 5 -6 -5z"/>
<path d="M2457 6673 c-7 -36 -5 -37 24 -13 19 18 21 23 9 30 -23 15 -27 12
-33 -17z"/>
<path d="M2393 6636 c-20 -20 -21 -26 -10 -50 7 -14 15 -26 18 -26 9 0 7 34
-4 48 -6 8 -6 12 2 12 6 0 11 6 11 14 0 8 6 17 13 19 6 3 8 6 2 6 -5 0 -20
-10 -32 -23z"/>
<path d="M2442 6617 c-28 -16 -18 -27 22 -26 18 1 24 3 13 6 -11 3 -16 11 -13
19 6 17 7 17 -22 1z"/>
<path d="M2914 6538 c-4 -7 -4 -10 1 -6 4 4 15 2 24 -5 14 -11 14 -10 2 6 -16
20 -18 21 -27 5z"/>
<path d="M2981 6492 c-6 -12 -5 -23 5 -37 8 -10 12 -26 9 -35 -5 -17 49 -83
74 -91 9 -3 14 -18 13 -37 -1 -29 2 -32 21 -27 20 6 21 5 4 -8 -16 -13 -16
-15 -1 -28 14 -11 18 -11 28 2 15 21 44 30 52 17 4 -7 9 -7 13 0 4 6 26 1 61
-13 74 -32 84 -32 75 3 -7 29 -51 71 -74 72 -8 0 -22 7 -32 16 -9 8 -26 17
-36 18 -10 2 -17 11 -17 20 1 10 -6 16 -21 16 -12 0 -34 6 -47 13 -20 10 -25
20 -24 49 1 28 -3 38 -17 42 -28 7 -47 -3 -39 -22 5 -16 5 -16 -11 0 -9 9 -14
24 -11 32 8 22 -13 20 -25 -2z"/>
<path d="M3120 6452 c0 -13 4 -20 10 -17 5 3 20 -1 32 -9 12 -9 18 -16 12 -16
-5 0 -15 5 -21 11 -7 7 -12 6 -16 -5 -8 -20 8 -29 30 -17 10 5 21 8 25 8 3 -1
10 2 15 7 5 5 3 6 -4 2 -7 -4 -13 -3 -13 2 0 5 -12 15 -27 23 -16 8 -31 18
-35 24 -4 5 -8 0 -8 -13z"/>
<path d="M3236 6392 c-3 -5 1 -9 9 -9 8 0 12 4 9 9 -3 4 -7 8 -9 8 -2 0 -6 -4
-9 -8z"/>
<path d="M2990 6341 c0 -5 5 -13 10 -16 6 -3 10 -2 10 4 0 5 -4 13 -10 16 -5
3 -10 2 -10 -4z"/>
<path d="M4000 6296 c0 -14 71 -66 90 -66 22 0 8 36 -23 58 -37 25 -67 29 -67
8z"/>
<path d="M4120 6270 c-8 -5 -9 -9 -1 -14 6 -4 11 -2 11 5 0 11 2 11 13 0 10
-10 9 -14 -5 -22 -18 -10 -15 -35 5 -37 7 0 21 -2 32 -4 14 -2 20 2 19 15 -1
12 6 17 27 17 21 0 29 5 29 18 0 12 -8 17 -32 18 -18 0 -45 3 -59 6 -14 3 -32
3 -39 -2z"/>
<path d="M4266 6242 c-4 -8 0 -71 5 -76 2 -2 18 -6 35 -9 l31 -6 -20 44 c-19
42 -41 62 -51 47z"/>
<path d="M3811 6211 c-1 -7 -7 -11 -16 -8 -8 4 -17 2 -20 -4 -4 -5 -1 -8 7 -7
7 2 14 -7 16 -19 2 -12 10 -27 18 -33 23 -20 16 -34 -9 -17 -16 10 -28 12 -40
5 -10 -5 -23 -6 -29 -2 -7 4 -25 9 -40 11 -15 1 -31 3 -35 4 -4 1 -22 1 -40 0
-24 -1 -31 -5 -27 -15 7 -18 -14 -58 -26 -51 -6 4 -6 -5 0 -21 8 -21 8 -30 -2
-36 -9 -6 -4 -7 12 -3 21 4 22 4 9 -6 -14 -11 -8 -20 44 -69 l59 -57 -28 -8
-29 -7 35 -30 35 -30 -29 5 c-33 5 -56 0 -56 -14 0 -15 43 -59 57 -59 8 0 11
-5 7 -12 -5 -8 -2 -9 10 -5 11 5 15 3 10 -5 -5 -8 -1 -9 12 -5 17 6 17 5 2 -5
-15 -11 -15 -14 -1 -35 18 -28 5 -50 -23 -39 -12 5 -15 14 -11 35 4 20 1 33
-11 43 -20 17 -53 32 -66 29 -4 -1 -18 4 -30 12 -11 8 -38 17 -59 20 -35 5
-36 4 -26 -14 6 -11 17 -23 25 -26 15 -6 20 -43 4 -43 -5 0 -13 8 -18 17 -8
14 -14 15 -40 4 -27 -11 -30 -16 -22 -37 5 -13 7 -25 5 -25 -19 -5 -27 -7 -40
-8 -20 -1 -44 -50 -47 -95 -2 -33 -7 -39 -45 -56 -24 -10 -43 -23 -43 -27 0
-4 -12 -21 -26 -38 -17 -20 -23 -36 -20 -52 4 -12 1 -25 -4 -28 -8 -5 -7 -11
1 -21 6 -7 15 -12 19 -9 5 3 12 0 16 -6 5 -8 1 -11 -12 -7 -15 4 -27 -6 -49
-39 -17 -25 -41 -50 -55 -58 -18 -9 -31 -30 -43 -68 -23 -73 -21 -99 8 -127
14 -13 25 -33 25 -44 0 -16 -2 -18 -9 -7 -11 17 -41 7 -41 -14 0 -16 -15 -20
-24 -6 -10 15 -46 0 -46 -19 0 -19 23 -43 33 -34 3 3 10 -4 17 -15 9 -18 8
-21 -11 -21 -19 0 -21 -4 -16 -35 4 -26 2 -35 -9 -35 -18 0 -18 -39 1 -64 8
-11 15 -28 15 -38 0 -10 7 -18 15 -18 22 0 18 -11 -15 -47 -17 -18 -30 -39
-29 -45 1 -7 -1 -22 -5 -33 -5 -11 -9 -25 -11 -31 -2 -7 -17 -18 -34 -25 -17
-8 -31 -21 -31 -30 0 -9 -7 -22 -15 -29 -8 -7 -15 -21 -15 -32 0 -11 -8 -42
-17 -70 -16 -51 -16 -52 5 -66 19 -13 21 -20 15 -72 -4 -38 -2 -60 6 -64 18
-11 13 -37 -11 -60 -13 -11 -23 -25 -24 -31 -1 -23 -24 -63 -39 -68 -13 -5
-14 -11 -5 -27 13 -24 0 -109 -23 -154 -19 -36 -12 -95 14 -118 10 -9 19 -22
19 -30 0 -23 -30 -58 -51 -58 -10 0 -19 -3 -20 -7 -5 -85 -5 -117 3 -161 10
-59 6 -71 -16 -53 -25 21 -52 -15 -51 -69 0 -39 4 -46 28 -58 l29 -14 -22 -23
c-30 -32 -29 -77 3 -115 33 -39 34 -53 2 -78 -14 -11 -25 -24 -25 -30 0 -6
-20 -29 -45 -53 -47 -45 -55 -66 -30 -75 22 -9 18 -19 -12 -32 -19 -8 -21 -10
-5 -6 28 7 30 -16 1 -23 -13 -4 -18 -11 -14 -21 6 -16 -39 -92 -54 -92 -7 0
-35 -54 -36 -70 0 -3 -3 -9 -7 -15 -8 -14 -3 -91 11 -145 6 -25 13 -51 14 -58
3 -13 47 -48 47 -36 0 3 7 1 15 -6 12 -10 16 -9 22 6 8 21 28 44 38 44 4 0 5
-13 3 -29 -1 -16 3 -39 9 -52 6 -13 13 -31 16 -40 4 -11 14 -15 36 -11 17 2
37 -1 44 -6 17 -14 103 -10 119 6 7 7 20 12 30 12 20 0 88 67 88 87 0 8 12 13
30 13 19 0 30 5 30 14 0 19 40 67 51 61 5 -4 9 1 9 10 0 11 5 15 14 12 9 -4
19 6 27 26 17 44 47 76 67 70 10 -2 22 5 30 17 11 18 10 23 -10 40 -13 10 -20
22 -16 26 4 4 15 1 23 -6 14 -12 51 -17 144 -21 13 -1 27 5 31 11 5 7 15 10
24 7 10 -4 16 -1 16 7 0 8 7 16 15 20 8 3 15 13 15 21 0 9 5 13 10 10 6 -4 8
-11 5 -16 -3 -5 1 -6 9 -3 9 3 15 9 14 12 -3 15 15 42 28 42 8 0 14 6 14 14 0
7 8 20 17 27 11 9 14 10 9 2 -5 -9 -2 -11 11 -6 16 6 16 5 4 -10 -9 -11 -10
-17 -2 -17 6 0 11 5 11 11 0 5 4 8 9 5 5 -3 14 1 20 8 10 12 8 13 -9 9 -14 -4
-19 -1 -17 8 2 8 2 11 0 7 -3 -5 -9 -8 -14 -8 -6 0 -7 6 -3 13 6 9 4 9 -8 -1
-14 -11 -19 -9 -34 17 -20 33 -34 40 -34 16 0 -8 -4 -15 -10 -15 -5 0 -10 4
-10 9 0 5 -9 11 -20 14 -29 7 -24 25 8 29 15 2 26 8 25 14 -1 7 3 11 10 11 35
-1 55 5 73 21 39 33 61 42 73 28 6 -7 27 -12 47 -11 19 0 38 -3 40 -7 3 -4 10
-8 15 -8 6 0 8 4 5 9 -3 4 5 18 19 31 14 13 21 29 18 39 -4 11 -1 10 11 -4 16
-20 16 -20 35 2 10 12 20 20 23 18 2 -2 2 10 0 28 -3 29 1 34 37 51 23 11 41
23 41 28 0 5 25 34 56 65 42 42 67 60 102 69 30 7 51 8 59 2 13 -10 28 6 19
21 -3 5 1 14 9 21 12 10 15 9 16 -9 2 -37 4 -41 14 -42 6 0 13 -6 18 -14 4 -7
13 -12 20 -11 30 5 57 18 57 27 0 5 12 9 28 9 19 0 23 3 13 9 -9 6 -10 11 -2
15 6 4 11 4 11 -1 0 -4 4 -1 10 7 6 9 23 14 51 13 23 -1 51 3 61 8 19 10 19
11 1 24 -17 13 -17 14 1 21 12 5 23 2 30 -8 6 -9 23 -14 36 -13 14 1 30 3 37
4 6 0 18 8 26 16 11 10 23 12 44 6 33 -10 95 -3 87 10 -6 10 46 12 70 3 9 -3
13 -10 10 -15 -3 -5 2 -9 10 -9 9 0 16 -5 16 -11 0 -6 5 -7 13 -2 22 13 35 11
53 -8 9 -10 20 -16 24 -14 16 10 62 -15 56 -30 -6 -16 14 -16 26 0 4 6 8 2 8
-8 0 -10 4 -16 9 -13 5 3 12 -10 15 -29 4 -20 11 -33 16 -30 4 3 6 -4 3 -15
-3 -11 -1 -20 4 -20 5 0 9 -9 9 -21 0 -19 -1 -19 -13 -3 -7 10 -13 13 -13 7 0
-17 48 -63 66 -63 13 0 14 -3 5 -14 -9 -11 -9 -16 0 -22 7 -4 9 -3 6 3 -4 6 0
13 8 16 10 5 13 -1 12 -21 -1 -19 2 -26 13 -24 43 10 49 10 44 -2 -4 -9 2 -12
18 -10 25 4 46 -10 64 -41 6 -11 27 -24 46 -30 41 -12 70 -33 62 -46 -3 -5 0
-9 6 -9 7 0 9 -7 6 -16 -4 -12 -2 -15 9 -10 14 5 21 -12 15 -39 -1 -5 1 -7 5
-3 9 8 45 -23 45 -39 0 -7 6 -13 14 -13 8 0 25 -18 38 -39 13 -22 36 -49 50
-61 l26 -20 7 30 c4 16 12 31 18 31 7 1 24 2 39 3 15 1 30 5 33 8 8 8 -6 109
-15 103 -12 -7 -29 41 -23 66 4 20 3 21 -7 9 -10 -13 -11 -12 -6 3 3 10 6 21
6 23 0 3 5 2 10 -1 6 -3 10 4 9 17 0 26 -17 70 -18 49 -1 -10 -4 -11 -15 -2
-19 16 -25 75 -9 90 10 9 13 7 13 -10 0 -12 3 -20 6 -16 10 10 -6 98 -17 92
-5 -4 -9 -3 -10 2 -5 94 -14 142 -30 165 -11 14 -19 40 -19 58 0 17 -9 43 -20
57 -11 14 -20 33 -20 42 0 10 -6 23 -12 29 -10 10 -10 17 0 32 17 27 15 37 -8
43 -17 4 -23 22 -19 53 0 4 -5 10 -13 15 -7 4 -13 16 -13 26 0 10 -12 24 -27
31 -16 7 -28 17 -28 23 0 5 -15 30 -34 56 -43 62 -66 107 -66 133 0 11 -10 30
-22 42 -14 14 -18 23 -10 26 7 2 12 15 12 28 0 14 -4 23 -9 20 -12 -8 -22 41
-16 82 2 18 0 32 -6 32 -6 0 -8 9 -4 20 4 13 2 20 -7 20 -11 0 -11 2 0 9 10 6
10 10 -3 21 -8 7 -15 18 -15 24 0 7 -12 23 -26 37 -14 13 -34 37 -44 54 -32
52 -100 120 -108 108 -5 -8 -12 -7 -26 3 -18 13 -18 15 -3 32 10 10 14 22 10
27 -5 4 0 5 11 1 13 -4 17 -2 13 8 -3 8 1 17 9 20 8 3 14 11 13 18 0 10 -2 10
-6 1 -2 -7 -10 -13 -15 -13 -6 0 -8 3 -5 6 4 4 -2 19 -12 33 -22 32 -32 69
-20 77 5 3 9 18 9 35 0 17 7 33 19 41 20 12 18 38 -4 38 -21 0 -24 60 -4 79
13 12 17 27 13 60 -2 25 -10 49 -16 53 -10 6 -8 12 7 24 20 16 20 16 -3 11
-12 -3 -20 -1 -16 4 3 5 1 9 -5 9 -14 0 -7 30 9 40 8 5 18 6 22 4 4 -3 8 -1 8
4 0 13 -25 33 -33 26 -3 -3 -11 4 -17 16 -8 15 -8 20 -1 16 6 -4 11 -3 11 3 0
5 -9 13 -21 16 -19 7 -20 7 -2 21 11 8 13 13 6 14 -7 0 -13 7 -13 16 0 8 -4
13 -8 10 -5 -3 -15 4 -22 15 -8 10 -18 19 -22 19 -17 0 -80 69 -73 80 6 9 2 9
-15 0 -18 -9 -21 -9 -15 0 4 7 3 15 -3 19 -6 4 9 6 33 6 30 0 40 -3 34 -11
-10 -13 26 -12 38 1 5 4 2 5 -5 1 -9 -6 -12 -2 -10 10 2 13 -2 18 -14 16 -12
-2 -16 2 -12 12 4 10 0 14 -13 12 -19 -3 -43 16 -43 34 0 6 -7 13 -16 17 -12
4 -14 14 -10 37 4 22 3 27 -4 16 -8 -13 -11 -13 -27 3 -16 16 -16 17 0 17 9 0
17 5 17 11 0 5 -3 8 -7 6 -5 -3 -23 2 -42 12 -26 12 -35 23 -36 43 0 15 1 25
4 23 2 -3 10 0 17 6 11 9 8 17 -17 41 -28 28 -29 31 -12 44 11 8 13 13 6 14
-7 0 -13 6 -13 14 0 15 -57 39 -71 31 -4 -3 -6 8 -4 25 3 29 -17 44 -28 20 -3
-6 -4 -5 -3 2 2 7 11 13 22 13 10 0 18 -6 16 -13 -1 -8 2 -11 8 -7 6 3 8 10 5
15 -3 5 -1 11 5 15 15 10 12 35 -5 35 -8 0 -15 5 -15 10 0 6 -11 16 -25 22
-14 6 -25 15 -25 20 0 5 5 6 12 2 7 -4 8 -3 4 5 -6 9 -11 9 -21 1 -10 -8 -13
-6 -11 7 0 10 -3 18 -9 18 -5 1 -25 9 -42 18 -18 10 -33 14 -33 10 0 -4 -5 -2
-11 4 -6 6 -8 17 -4 23 6 9 10 9 16 -1 5 -8 9 -9 9 -3 0 13 -19 31 -35 34 -5
1 -66 29 -135 62 -146 71 -154 74 -285 98 -55 10 -131 28 -169 39 -38 12 -80
19 -92 17 -13 -3 -25 1 -28 7 -3 8 -5 7 -5 -2z m19 -211 c0 -5 -4 -10 -10 -10
-5 0 -10 5 -10 10 0 6 5 10 10 10 6 0 10 -4 10 -10z m-80 -26 c0 -9 -5 -14
-12 -12 -18 6 -21 28 -4 28 9 0 16 -7 16 -16z m160 -10 c0 -9 -7 -14 -17 -12
-25 5 -28 28 -4 28 12 0 21 -6 21 -16z m700 -69 c0 -15 -21 -12 -30 5 -11 20
-10 21 9 10 12 -6 21 -13 21 -15z m-233 -31 c-9 -9 -28 6 -21 18 4 6 10 6 17
-1 6 -6 8 -13 4 -17z m143 -45 c0 -5 -7 -9 -15 -9 -15 0 -20 12 -9 23 8 8 24
-1 24 -14z m140 1 c0 -5 7 -7 15 -4 8 4 15 2 15 -4 0 -5 -7 -12 -15 -16 -8 -3
-15 -1 -15 4 0 6 -7 10 -15 10 -8 0 -15 5 -15 10 0 6 7 10 15 10 8 0 15 -4 15
-10z m-550 -51 c0 -5 -7 -9 -15 -9 -15 0 -20 12 -9 23 8 8 24 -1 24 -14z m257
-72 c-6 -20 -27 -19 -27 2 0 14 5 19 15 14 9 -3 14 -10 12 -16z m-571 -35 c-3
-2 -13 1 -24 7 -11 6 -21 8 -24 6 -3 -3 -5 2 -5 10 0 12 5 12 28 -2 16 -9 27
-19 25 -21z m329 -52 c3 -5 1 -10 -4 -10 -6 0 -11 5 -11 10 0 6 2 10 4 10 3 0
8 -4 11 -10z m-77 -38 c2 -7 -3 -12 -12 -12 -9 0 -16 7 -16 16 0 17 22 14 28
-4z m162 -12 c0 -5 -4 -10 -10 -10 -5 0 -10 5 -10 10 0 6 5 10 10 10 6 0 10
-4 10 -10z m540 -60 c0 -5 -4 -10 -10 -10 -5 0 -10 5 -10 10 0 6 5 10 10 10 6
0 10 -4 10 -10z m-1110 -8 c0 -13 -12 -22 -22 -16 -10 6 -1 24 13 24 5 0 9 -4
9 -8z m-129 -15 c-1 -12 -15 -9 -19 4 -3 6 1 10 8 8 6 -3 11 -8 11 -12z m989
3 c0 -5 -4 -10 -10 -10 -5 0 -10 5 -10 10 0 6 5 10 10 10 6 0 10 -4 10 -10z
m370 -63 c0 -13 -37 11 -44 28 -5 13 -1 13 19 -2 13 -10 25 -22 25 -26z m-322
1 c-7 -19 -38 -22 -38 -4 0 10 9 16 21 16 12 0 19 -5 17 -12z m-123 -8 c3 -5
1 -10 -4 -10 -6 0 -11 5 -11 10 0 6 2 10 4 10 3 0 8 -4 11 -10z m285 -10 c0
-5 -7 -7 -15 -4 -8 4 -15 8 -15 10 0 2 7 4 15 4 8 0 15 -4 15 -10z m-35 -10
c3 -5 1 -10 -4 -10 -6 0 -11 5 -11 10 0 6 2 10 4 10 3 0 8 -4 11 -10z m-690
-10 c-3 -5 -10 -10 -16 -10 -5 0 -9 5 -9 10 0 6 7 10 16 10 8 0 12 -4 9 -10z
m-275 -10 c0 -5 -4 -10 -10 -10 -5 0 -10 5 -10 10 0 6 5 10 10 10 6 0 10 -4
10 -10z m660 0 c0 -5 -4 -10 -10 -10 -5 0 -10 5 -10 10 0 6 5 10 10 10 6 0 10
-4 10 -10z m390 -17 c0 -10 -20 -40 -20 -31 0 3 -3 13 -6 22 -4 11 -1 16 10
16 9 0 16 -3 16 -7z m120 -67 c0 -8 -4 -17 -9 -21 -12 -7 -24 12 -16 25 9 15
25 12 25 -4z m-60 -6 c0 -5 -2 -10 -4 -10 -3 0 -8 5 -11 10 -3 6 -1 10 4 10 6
0 11 -4 11 -10z m-1520 -14 c0 -11 -19 -15 -25 -6 -3 5 1 10 9 10 9 0 16 -2
16 -4z m448 -35 c3 -8 -1 -12 -9 -9 -7 2 -15 10 -17 17 -3 8 1 12 9 9 7 -2 15
-10 17 -17z m-448 -15 c0 -11 -19 -15 -25 -6 -3 5 1 10 9 10 9 0 16 -2 16 -4z
m837 -42 c-3 -3 -12 -4 -19 -1 -8 3 -5 6 6 6 11 1 17 -2 13 -5z m673 -19 c0
-8 -7 -15 -15 -15 -16 0 -20 12 -8 23 11 12 23 8 23 -8z m-1095 -45 c-3 -5
-10 -10 -16 -10 -5 0 -9 5 -9 10 0 6 7 10 16 10 8 0 12 -4 9 -10z m1003 -2
c-6 -18 -28 -21 -28 -4 0 9 7 16 16 16 9 0 14 -5 12 -12z m132 -48 c0 -5 -2
-10 -4 -10 -3 0 -8 5 -11 10 -3 6 -1 10 4 10 6 0 11 -4 11 -10z m180 -64 c0
-11 -19 -15 -25 -6 -3 5 1 10 9 10 9 0 16 -2 16 -4z m-1020 -35 c0 -14 -18
-23 -30 -16 -6 4 -8 11 -5 16 8 12 35 12 35 0z m440 0 c0 -14 -18 -23 -30 -16
-6 4 -8 11 -5 16 8 12 35 12 35 0z m120 -106 c0 -8 -4 -15 -9 -15 -13 0 -22
16 -14 24 11 11 23 6 23 -9z m237 -407 c-3 -8 -6 -5 -6 6 -1 11 2 17 5 13 3
-3 4 -12 1 -19z m-532 -18 c-3 -5 -10 -10 -16 -10 -5 0 -9 5 -9 10 0 6 7 10
16 10 8 0 12 -4 9 -10z m210 -9 c7 -12 -12 -24 -25 -16 -11 7 -4 25 10 25 5 0
11 -4 15 -9z m-1027 -22 c-2 -6 -8 -10 -13 -10 -5 0 -11 4 -13 10 -2 6 4 11
13 11 9 0 15 -5 13 -11z m142 -8 c0 -29 -23 -43 -45 -27 -25 18 -13 46 20 46
18 0 25 -5 25 -19z m-370 -9 c0 -13 -12 -22 -22 -16 -10 6 -1 24 13 24 5 0 9
-4 9 -8z m430 -42 c0 -5 -4 -10 -10 -10 -5 0 -10 5 -10 10 0 6 5 10 10 10 6 0
10 -4 10 -10z m1525 -269 c7 -12 -12 -24 -25 -16 -11 7 -4 25 10 25 5 0 11 -4
15 -9z m-1095 -61 c0 -5 -5 -10 -11 -10 -5 0 -7 5 -4 10 3 6 8 10 11 10 2 0 4
-4 4 -10z m1170 -95 c0 -8 -4 -15 -10 -15 -5 0 -10 7 -10 15 0 8 5 15 10 15 6
0 10 -7 10 -15z m-647 -30 c1 -5 -6 -11 -15 -13 -11 -2 -18 3 -18 13 0 17 30
18 33 0z m365 -76 c-2 -6 -8 -10 -13 -10 -5 0 -11 4 -13 10 -2 6 4 11 13 11 9
0 15 -5 13 -11z m-1043 -59 c0 -20 -5 -25 -24 -25 -31 0 -52 31 -31 45 27 18
55 7 55 -20z m825 0 c0 -5 -4 -10 -10 -10 -5 0 -10 5 -10 10 0 6 5 10 10 10 6
0 10 -4 10 -10z m-470 -170 c0 -5 -7 -10 -15 -10 -8 0 -15 5 -15 10 0 6 7 10
15 10 8 0 15 -4 15 -10z m-1255 -10 c3 -5 1 -10 -4 -10 -6 0 -11 5 -11 10 0 6
2 10 4 10 3 0 8 -4 11 -10z m2285 -40 c0 -5 -2 -10 -4 -10 -3 0 -8 5 -11 10
-3 6 -1 10 4 10 6 0 11 -4 11 -10z m-1160 -10 c0 -5 -4 -10 -10 -10 -5 0 -10
5 -10 10 0 6 5 10 10 10 6 0 10 -4 10 -10z m0 -61 c0 -5 -7 -9 -15 -9 -15 0
-20 12 -9 23 8 8 24 -1 24 -14z m176 -26 c-10 -10 -19 5 -10 18 6 11 8 11 12
0 2 -7 1 -15 -2 -18z m-700 6 c10 -17 -13 -36 -27 -22 -12 12 -4 33 11 33 5 0
12 -5 16 -11z m434 -4 c0 -8 -4 -15 -9 -15 -13 0 -22 16 -14 24 11 11 23 6 23
-9z m1210 -65 c0 -5 -4 -10 -10 -10 -5 0 -10 5 -10 10 0 6 5 10 10 10 6 0 10
-4 10 -10z m319 -174 c-3 -3 -11 5 -18 17 -13 21 -12 21 5 5 10 -10 16 -20 13
-22z m-269 14 c0 -5 -4 -10 -10 -10 -5 0 -10 5 -10 10 0 6 5 10 10 10 6 0 10
-4 10 -10z m-2200 -30 c0 -5 -7 -10 -15 -10 -8 0 -15 5 -15 10 0 6 7 10 15 10
8 0 15 -4 15 -10z m2517 -45 c0 -8 -4 -15 -9 -15 -4 0 -8 7 -8 15 0 8 4 15 8
15 5 0 9 -7 9 -15z m-1847 -26 c0 -5 -7 -9 -15 -9 -15 0 -20 12 -9 23 8 8 24
-1 24 -14z m1414 -30 c-3 -5 -10 -7 -15 -3 -5 3 -7 10 -3 15 3 5 10 7 15 3 5
-3 7 -10 3 -15z m52 -36 c-10 -11 -19 -7 -22 10 -2 15 0 16 12 6 8 -6 12 -14
10 -16z m-32 -9 c3 -8 2 -12 -4 -9 -6 3 -10 10 -10 16 0 14 7 11 14 -7z
m-1804 -28 c0 -3 -4 -8 -10 -11 -5 -3 -10 -1 -10 4 0 6 5 11 10 11 6 0 10 -2
10 -4z m-344 -417 c8 -14 -18 -31 -30 -19 -9 9 0 30 14 30 5 0 12 -5 16 -11z
m-516 -219 c0 -5 -5 -10 -11 -10 -5 0 -7 5 -4 10 3 6 8 10 11 10 2 0 4 -4 4
-10z"/>
<path d="M5165 5611 c-3 -5 -2 -12 3 -15 5 -3 9 1 9 9 0 17 -3 19 -12 6z"/>
<path d="M5338 5373 c7 -3 16 -2 19 1 4 3 -2 6 -13 5 -11 0 -14 -3 -6 -6z"/>
<path d="M5300 5317 c0 -13 67 -43 77 -34 3 3 -13 15 -36 27 -30 15 -41 17
-41 7z"/>
<path d="M5120 5000 c-9 -6 -10 -10 -3 -10 6 0 15 5 18 10 8 12 4 12 -15 0z"/>
<path d="M2874 4639 c-3 -6 -1 -16 5 -22 8 -8 11 -5 11 11 0 24 -5 28 -16 11z"/>
<path d="M5656 4507 c3 -10 9 -15 12 -12 3 3 0 11 -7 18 -10 9 -11 8 -5 -6z"/>
<path d="M5146 4475 c4 -8 11 -15 16 -15 6 0 5 6 -2 15 -7 8 -14 15 -16 15 -2
0 -1 -7 2 -15z"/>
<path d="M4538 3323 c7 -3 16 -2 19 1 4 3 -2 6 -13 5 -11 0 -14 -3 -6 -6z"/>
<path d="M4936 3312 c-3 -5 1 -9 9 -9 8 0 12 4 9 9 -3 4 -7 8 -9 8 -2 0 -6 -4
-9 -8z"/>
<path d="M5229 2983 c-13 -16 -12 -17 4 -4 16 13 21 21 13 21 -2 0 -10 -8 -17
-17z"/>
<path d="M3831 2936 c-25 -26 -14 -44 16 -27 11 6 13 11 5 11 -10 0 -10 5 -2
20 14 26 8 25 -19 -4z"/>
<path d="M3883 2845 c0 -8 4 -12 9 -9 5 3 6 10 3 15 -9 13 -12 11 -12 -6z"/>
<path d="M3620 2834 c0 -8 5 -12 10 -9 6 4 8 11 5 16 -9 14 -15 11 -15 -7z"/>
<path d="M2290 2820 c-9 -6 -10 -10 -3 -10 6 0 15 5 18 10 8 12 4 12 -15 0z"/>
<path d="M3846 2793 c-3 -4 -17 -8 -29 -10 -38 -5 -49 -13 -44 -27 4 -10 0
-12 -14 -9 -21 6 -27 -21 -8 -33 13 -8 51 35 43 48 -8 13 21 9 35 -4 10 -11
12 -10 9 2 -2 8 3 14 10 12 8 -1 11 2 8 7 -4 5 0 12 6 14 7 3 8 6 2 6 -6 1
-14 -2 -18 -6z"/>
<path d="M3380 2532 c11 -22 31 -22 29 1 0 8 -2 8 -6 -1 -4 -10 -9 -9 -20 5
-13 17 -13 16 -3 -5z"/>
<path d="M5530 2499 c0 -5 9 -18 20 -29 11 -11 20 -23 19 -27 0 -4 4 -9 10
-11 16 -5 13 9 -6 31 -10 11 -13 17 -7 14 7 -4 14 0 18 8 3 8 0 15 -7 16 -7 0
-20 2 -29 4 -10 2 -18 -1 -18 -6z"/>
<path d="M2400 2480 c0 -5 5 -10 11 -10 5 0 7 5 4 10 -3 6 -8 10 -11 10 -2 0
-4 -4 -4 -10z"/>
<path d="M2427 2390 c-4 -14 -10 -18 -22 -14 -14 6 -16 3 -10 -16 5 -15 4 -20
-4 -16 -6 4 -11 0 -11 -9 0 -8 11 -20 24 -25 13 -5 26 -15 28 -22 3 -7 6 17 7
55 1 68 -2 83 -12 47z"/>
<path d="M2361 2340 c0 -8 4 -22 9 -30 12 -18 12 -2 0 25 -6 13 -9 15 -9 5z"/>
<path d="M5825 1980 c22 -45 29 -52 20 -20 -4 14 -14 32 -22 40 -12 12 -11 7
2 -20z"/>
<path d="M2992 1868 c9 -13 24 -25 34 -27 15 -3 14 1 -6 23 -31 32 -48 34 -28
4z"/>
</g>
</svg>
